<svg xmlns="http://www.w3.org/2000/svg" xmlns:xlink="http://www.w3.org/1999/xlink" width="1200" zoomAndPan="magnify" viewBox="0 0 900 899.99999" height="1200" preserveAspectRatio="xMidYMid meet" version="1.0"><rect x="-90" width="1080" fill="none" y="-89.999999" height="1079.999988" fill-opacity="1"/><rect x="-90" width="1080" fill="#ffffff" y="-89.999999" height="1079.999988" fill-opacity="1"/><path fill="#0b0b0b" d="M 396.289062 739.410156 C 383.257812 743.1875 370.226562 745.265625 356.628906 745.453125 C 344.734375 745.265625 333.023438 745.640625 321.128906 745.074219 C 293.367188 742.996094 266.550781 737.523438 242 724.117188 C 221.605469 712.976562 204.984375 698.4375 200.453125 673.890625 C 197.242188 657.085938 203.097656 642.925781 210.839844 628.953125 C 213.863281 623.476562 220.28125 619.320312 221.414062 613.65625 C 222.359375 608.558594 217.828125 602.515625 216.695312 596.664062 C 214.429688 584.203125 211.59375 571.550781 211.972656 558.710938 C 211.21875 550.59375 211.21875 542.660156 211.972656 534.542969 C 213.863281 488.847656 227.648438 446.929688 255.40625 410.488281 C 277.125 381.976562 304.507812 359.886719 338.691406 347.046875 C 352.851562 341.757812 366.828125 334.773438 375.515625 320.988281 C 376.835938 318.910156 378.160156 317.402344 376.648438 314.757812 C 361.917969 288.132812 362.863281 261.132812 374.382812 233.753906 C 377.402344 226.578125 381.558594 220.347656 384.769531 213.363281 C 385.144531 212.796875 385.523438 212.039062 385.714844 211.285156 C 386.089844 202.976562 386.089844 194.480469 386.28125 186.171875 C 387.601562 169.554688 389.679688 153.128906 395.722656 137.457031 C 401.953125 121.03125 410.074219 122.917969 421.214844 131.605469 C 433.867188 141.234375 443.5 153.882812 452.1875 167.101562 C 455.398438 172.011719 458.230469 174.277344 464.652344 172.390625 C 471.261719 170.3125 478.25 170.125 485.046875 168.988281 C 493.167969 168.046875 501.097656 168.046875 509.21875 168.988281 C 518.660156 170.5 528.105469 171.632812 537.167969 173.710938 C 540.757812 174.464844 542.265625 173.710938 544.15625 171.445312 C 556.054688 156.71875 569.839844 143.878906 586.648438 134.625 C 597.976562 128.582031 605.152344 132.171875 606.664062 145.011719 C 606.851562 146.332031 606.851562 147.84375 606.851562 149.164062 C 608.742188 158.226562 608.742188 167.101562 606.851562 176.164062 C 606.664062 186.363281 606.476562 196.558594 604.019531 206.566406 C 603.644531 208.453125 604.398438 209.585938 605.34375 211.097656 C 611.386719 219.59375 616.105469 228.84375 620.074219 238.476562 C 628.757812 259.8125 630.835938 281.335938 623.28125 303.429688 C 620.449219 304.183594 618.75 302.671875 617.238281 300.597656 C 615.351562 297.007812 616.863281 293.609375 617.804688 290.023438 C 619.128906 283.792969 618.183594 277.5625 618.371094 271.140625 C 620.640625 265.855469 617.238281 261.324219 616.296875 256.414062 C 615.917969 253.957031 614.21875 251.691406 614.40625 249.050781 C 610.628906 238.097656 605.910156 227.523438 599.109375 218.082031 C 594.957031 212.230469 593.824219 206.1875 595.144531 199.390625 C 596.65625 191.082031 597.410156 182.773438 598.355469 174.277344 C 599.675781 166.347656 600.054688 158.417969 597.976562 150.675781 C 596.089844 140.289062 593.632812 139.15625 584.757812 145.199219 C 573.050781 153.128906 562.285156 162.003906 553.410156 173.144531 C 549.820312 177.675781 546.042969 182.585938 539.058594 181.453125 C 533.015625 182.585938 527.726562 179.1875 522.0625 178.054688 C 519.792969 177.863281 517.71875 177.296875 515.449219 178.242188 C 514.316406 178.429688 513.183594 178.054688 512.050781 178.054688 C 502.421875 177.488281 492.976562 175.789062 483.347656 177.296875 C 482.589844 177.488281 481.835938 177.675781 481.269531 177.863281 C 476.359375 178.996094 471.070312 178.429688 466.160156 179.375 C 454.453125 183.527344 452.375 182.585938 445.199219 172.199219 C 436.324219 159.359375 426.503906 147.277344 414.984375 136.703125 C 412.90625 134.8125 411.207031 132.359375 407.996094 134.8125 C 403.84375 140.289062 400.820312 146.332031 399.6875 153.128906 C 398.175781 162.382812 395.53125 171.257812 396.097656 180.695312 C 396.097656 183.152344 396.289062 185.605469 395.34375 188.0625 C 390.433594 195.800781 392.890625 204.300781 392.699219 212.605469 C 393.644531 215.628906 392.699219 218.082031 391 220.539062 C 385.902344 227.902344 382.503906 236.210938 379.667969 244.707031 C 377.027344 248.671875 377.402344 253.582031 376.082031 257.734375 C 375.515625 259.433594 375.515625 261.132812 375.703125 263.023438 C 374.382812 269.820312 375.328125 276.804688 374.757812 283.601562 C 375.328125 285.492188 376.648438 287.378906 376.648438 289.457031 C 377.027344 292.667969 377.402344 296.066406 378.726562 299.085938 C 382.878906 304.5625 384.011719 311.738281 388.546875 317.023438 C 391.945312 323.445312 400.066406 326.652344 400.441406 334.960938 C 399.875 337.039062 398.554688 338.171875 396.476562 338.738281 C 391.757812 339.871094 390.8125 334.582031 387.414062 333.449219 C 382.878906 329.296875 378.914062 329.675781 375.136719 334.773438 C 372.492188 338.171875 368.527344 340.058594 364.75 341.949219 C 363.617188 342.703125 362.863281 344.023438 361.539062 344.214844 C 349.644531 350.632812 337.746094 356.675781 325.46875 362.152344 C 319.617188 365.171875 313.761719 368.195312 308.472656 372.347656 C 305.453125 372.535156 303.753906 374.800781 301.488281 376.691406 C 292.800781 383.675781 283.925781 390.472656 276.179688 398.59375 C 269.570312 405.578125 263.527344 412.945312 258.617188 421.25 C 254.652344 425.59375 251.441406 430.316406 249.175781 435.789062 C 242 444.097656 239.542969 454.671875 235.203125 464.492188 C 230.667969 476.007812 228.023438 488.09375 224.625 499.988281 C 222.925781 511.316406 221.039062 522.648438 220.847656 534.164062 C 220.09375 542.472656 219.527344 550.78125 220.847656 558.898438 C 220.847656 567.398438 222.359375 575.515625 224.058594 583.824219 C 224.4375 592.886719 227.648438 601.195312 230.292969 609.691406 C 231.046875 612.335938 232.179688 614.980469 232.367188 617.8125 C 232.367188 619.320312 232.933594 620.832031 232.367188 622.53125 C 231.800781 625.175781 230.101562 626.496094 227.457031 626.6875 C 218.015625 628.761719 209.894531 641.414062 210.460938 653.121094 C 205.363281 667.46875 210.273438 679.933594 217.449219 692.015625 C 222.925781 697.871094 228.402344 703.914062 234.636719 709.011719 C 236.523438 710.519531 238.222656 711.84375 240.488281 712.03125 C 248.609375 715.996094 256.351562 721.09375 265.039062 723.925781 C 273.539062 726.003906 281.28125 730.347656 289.96875 731.292969 C 299.789062 732.800781 309.417969 734.691406 319.425781 734.878906 C 327.359375 735.824219 335.289062 737.710938 343.410156 737.710938 C 355.496094 736.199219 367.773438 735.824219 379.667969 732.992188 C 384.203125 733.367188 388.921875 731.292969 393.457031 732.800781 C 397.234375 734.5 398.367188 736.390625 396.289062 739.410156 Z M 396.289062 739.410156 " fill-opacity="1" fill-rule="nonzero"/><path fill="#0d0d0d" d="M 457.097656 700.136719 C 455.398438 699.570312 453.507812 699.003906 452 698.246094 C 443.6875 693.339844 443.878906 693.339844 442.746094 702.96875 C 440.855469 704.480469 439.15625 705.988281 436.890625 703.347656 C 435.191406 701.082031 435.570312 698.4375 435.191406 695.980469 C 434.058594 685.410156 428.390625 679.367188 417.816406 678.421875 C 411.773438 677.855469 405.730469 678.042969 399.6875 679.933594 C 396.289062 681.066406 393.078125 682.199219 389.488281 681.632812 C 383.445312 684.277344 376.835938 685.03125 370.792969 686.917969 C 361.539062 686.917969 352.851562 690.128906 343.601562 689.75 C 341.144531 689.941406 338.691406 690.507812 336.234375 690.507812 C 324.335938 689.183594 312.25 689.375 300.355469 688.429688 C 294.121094 685.976562 287.324219 686.351562 281.089844 683.707031 C 274.105469 679.554688 265.417969 678.800781 258.808594 673.703125 C 254.839844 669.359375 249.175781 666.902344 245.210938 662.5625 C 240.867188 655.765625 233.691406 650.664062 232.746094 641.792969 C 232.558594 641.035156 232.746094 640.28125 232.933594 639.527344 C 233.5 637.449219 234.824219 636.125 237.089844 635.9375 C 240.300781 635.75 242.1875 638.015625 243.511719 640.46875 C 245.777344 644.625 249.175781 647.832031 252.574219 650.855469 C 253.707031 655.007812 255.785156 658.03125 259.75 660.296875 C 273.914062 668.226562 288.269531 675.402344 304.886719 677.101562 C 308.097656 677.476562 311.496094 677.476562 314.707031 677.101562 C 324.148438 677.855469 333.402344 677.476562 342.84375 677.101562 C 354.175781 678.234375 365.128906 675.023438 376.082031 674.078125 C 383.445312 670.679688 391.566406 669.171875 398.554688 664.261719 C 393.078125 660.671875 387.222656 660.671875 380.992188 661.617188 C 375.136719 662.5625 370.226562 666.335938 364.183594 666.148438 C 359.652344 661.617188 359.652344 659.730469 364.941406 655.007812 C 374.382812 646.890625 381.179688 636.882812 385.144531 625.175781 C 387.414062 618.378906 387.789062 611.390625 389.300781 604.59375 C 391.378906 599.117188 389.488281 593.644531 388.921875 588.167969 C 388.546875 583.636719 387.601562 578.914062 387.601562 574.382812 C 385.335938 570.230469 384.769531 565.320312 382.503906 561.164062 C 383.070312 556.066406 380.804688 551.914062 377.78125 547.949219 C 371.925781 540.207031 368.527344 530.953125 360.972656 524.535156 C 359.839844 520.757812 356.820312 519.25 353.609375 517.359375 C 348.132812 514.148438 343.035156 510.5625 337.746094 507.164062 C 334.914062 505.464844 331.511719 503.386719 333.214844 499.609375 C 334.914062 495.269531 338.691406 496.210938 342.089844 497.535156 C 344.167969 499.234375 345.867188 500.933594 348.320312 501.875 C 369.851562 511.128906 382.3125 528.878906 391.191406 549.082031 C 401.765625 573.0625 403.84375 597.984375 397.988281 623.664062 C 396.476562 630.085938 393.457031 635.9375 390.621094 641.980469 C 387.980469 647.644531 388.546875 648.589844 394.589844 650.289062 C 402.332031 652.363281 410.074219 654.441406 414.230469 662.5625 C 415.929688 665.394531 418.949219 666.335938 421.40625 665.015625 C 424.617188 663.128906 422.347656 660.105469 421.40625 657.464844 C 411.585938 632.160156 403.84375 606.480469 400.066406 579.671875 C 398.175781 566.640625 395.34375 553.800781 396.289062 540.585938 C 396.289062 536.242188 394.777344 532.085938 395.34375 527.746094 C 395.722656 524.914062 395.910156 521.703125 399.5 521.324219 C 403.277344 520.949219 403.84375 523.96875 404.597656 526.800781 C 405.917969 532.277344 406.296875 537.941406 407.621094 543.417969 C 407.621094 552.859375 410.453125 562.109375 411.585938 571.363281 C 411.773438 573.628906 412.339844 575.894531 412.339844 578.160156 C 412.71875 583.445312 414.984375 588.542969 415.363281 593.832031 C 416.683594 603.460938 420.648438 612.335938 421.78125 621.964844 C 427.257812 636.125 431.601562 650.664062 437.078125 664.828125 C 441.234375 675.210938 446.523438 684.652344 456.34375 690.882812 C 457.851562 693.90625 461.820312 696.925781 457.097656 700.136719 Z M 457.097656 700.136719 " fill-opacity="1" fill-rule="nonzero"/><path fill="#0c0c0c" d="M 587.78125 429.558594 C 588.347656 445.421875 586.269531 461.28125 584.570312 476.953125 C 583.4375 487.148438 580.601562 497.34375 578.335938 507.351562 C 577.203125 512.449219 577.582031 517.171875 580.035156 522.082031 C 591.554688 544.925781 596.84375 569.285156 594.390625 594.777344 C 592.691406 612.902344 585.136719 628.953125 572.105469 642.359375 C 576.449219 647.457031 582.871094 649.722656 586.648438 656.140625 C 592.3125 665.769531 586.078125 674.269531 578.335938 678.609375 C 576.070312 679.933594 573.238281 680.5 570.59375 681.441406 C 564.363281 680.121094 566.0625 676.910156 568.515625 673.511719 C 570.027344 671.246094 570.40625 668.601562 569.839844 665.960938 C 568.707031 659.917969 571.539062 657.839844 577.203125 658.40625 C 575.695312 655.765625 573.617188 654.253906 571.160156 653.308594 C 568.707031 652.363281 565.875 651.421875 563.796875 653.496094 C 561.71875 655.765625 564.171875 657.839844 564.929688 659.917969 C 566.25 663.316406 568.894531 666.714844 564.550781 669.925781 C 562.097656 670.679688 560.019531 669.734375 557.753906 668.980469 C 555.863281 666.335938 553.21875 664.261719 550.953125 661.804688 C 544.722656 654.632812 545.289062 646.324219 546.609375 637.824219 C 546.800781 633.484375 547.554688 629.140625 547.742188 624.796875 C 547.175781 620.832031 547.933594 616.867188 549.066406 613.089844 C 549.632812 604.027344 551.710938 595.34375 552.652344 586.46875 C 552.464844 580.804688 554.355469 575.515625 556.054688 570.230469 C 555.863281 561.730469 560.207031 553.800781 559.640625 545.117188 C 566.25 521.515625 571.539062 497.535156 574.558594 473.175781 C 574.183594 467.132812 576.828125 461.46875 577.582031 455.617188 C 577.960938 448.628906 577.769531 441.644531 580.226562 434.847656 C 581.359375 431.824219 580.792969 428.992188 579.660156 426.160156 C 580.226562 419.929688 578.148438 413.511719 582.113281 407.84375 C 584.378906 406.335938 586.457031 406.902344 588.15625 408.976562 C 589.480469 412.375 588.535156 415.964844 588.914062 419.363281 C 588.535156 422.949219 589.667969 426.539062 587.78125 429.558594 Z M 587.78125 429.558594 " fill-opacity="1" fill-rule="nonzero"/><path fill="#101010" d="M 457.097656 700.136719 C 458.042969 697.113281 454.640625 695.792969 454.265625 693.148438 C 457.097656 689.375 460.308594 692.015625 463.328125 692.582031 C 471.636719 694.09375 472.773438 693.527344 472.015625 685.410156 C 471.828125 682.574219 471.828125 680.121094 474.847656 678.988281 C 478.058594 677.855469 480.324219 679.554688 482.023438 682.007812 C 483.535156 683.898438 484.101562 686.164062 484.667969 688.429688 C 485.046875 690.128906 485.992188 691.640625 488.066406 691.449219 C 490.335938 691.261719 490.902344 689.375 491.277344 687.296875 C 491.46875 686.164062 491.277344 684.84375 490.902344 683.710938 C 490.144531 681.066406 489.578125 678.421875 492.222656 676.535156 C 495.054688 674.457031 497.511719 676.34375 500.15625 677.667969 C 501.097656 673.136719 495.621094 669.546875 498.265625 664.828125 C 499.398438 663.316406 500.910156 661.996094 502.988281 661.617188 C 511.484375 663.695312 510.917969 671.8125 513.5625 677.667969 C 514.316406 679.367188 513.941406 681.441406 513.75 683.332031 C 512.808594 685.976562 514.128906 689.375 511.109375 691.261719 C 509.21875 691.640625 507.332031 691.449219 506.007812 693.148438 C 500.722656 700.703125 492.410156 702.96875 484.101562 703.914062 C 475.039062 704.855469 465.59375 704.667969 457.097656 700.136719 Z M 457.097656 700.136719 " fill-opacity="1" fill-rule="nonzero"/><path fill="#111111" d="M 620.074219 300.785156 C 621.394531 301.730469 622.714844 302.671875 624.226562 303.617188 C 618.75 323.632812 606.285156 339.117188 590.421875 351.765625 C 587.023438 354.597656 588.347656 357.621094 587.402344 360.453125 C 584.570312 366.304688 587.402344 372.535156 585.703125 378.390625 C 585.324219 378.957031 584.757812 379.332031 584.003906 379.523438 C 580.792969 378.765625 581.738281 376.125 581.171875 374.046875 C 580.414062 371.027344 581.546875 367.4375 578.335938 365.359375 C 574.371094 365.359375 570.785156 367.25 567.007812 368.195312 C 563.039062 369.136719 560.019531 368.382812 559.640625 363.660156 C 560.398438 359.507812 564.171875 358.375 567.195312 356.675781 C 588.15625 345.535156 604.019531 330.050781 613.839844 308.339844 C 616.296875 306.074219 614.40625 300.03125 620.074219 300.785156 Z M 620.074219 300.785156 " fill-opacity="1" fill-rule="nonzero"/><path fill="#0a0a0a" d="M 511.109375 691.261719 C 510.164062 688.996094 508.464844 686.730469 510.917969 684.464844 C 514.507812 682.199219 517.152344 685.976562 520.550781 685.785156 C 526.214844 686.730469 530.746094 686.351562 529.046875 678.609375 C 528.480469 675.96875 529.613281 673.890625 532.257812 673.136719 C 534.523438 672.378906 536.414062 673.324219 537.734375 675.210938 C 538.679688 676.535156 539.433594 677.855469 540.566406 679.175781 C 541.511719 684.085938 544.15625 686.917969 549.445312 686.917969 C 551.710938 688.242188 554.730469 688.808594 553.785156 692.582031 C 541.699219 699.382812 529.425781 696.925781 517.152344 693.527344 C 514.695312 692.960938 512.996094 692.015625 511.109375 691.261719 Z M 511.109375 691.261719 " fill-opacity="1" fill-rule="nonzero"/><path fill="#111111" d="M 438.589844 702.402344 C 439.910156 703.347656 441.234375 702.96875 442.746094 702.78125 C 435.757812 725.625 417.0625 733.746094 396.289062 739.410156 C 396.097656 737.332031 395.15625 736.011719 393.265625 735.257812 C 392.890625 733.558594 393.644531 732.425781 394.964844 731.667969 C 401.007812 728.648438 407.617188 726.570312 413.664062 723.550781 C 421.40625 719.585938 428.015625 714.488281 432.167969 706.746094 C 433.679688 704.289062 434.8125 701.269531 438.589844 702.402344 Z M 438.589844 702.402344 " fill-opacity="1" fill-rule="nonzero"/><path fill="#121212" d="M 553.410156 692.773438 C 551.898438 690.882812 550.011719 690.316406 547.742188 690.128906 C 545.855469 684.652344 546.800781 678.800781 546.042969 673.136719 C 545.476562 669.546875 548.6875 668.226562 552.464844 669.546875 C 556.054688 673.511719 557.5625 669.738281 559.453125 667.46875 C 561.152344 668.035156 562.851562 668.414062 564.738281 668.980469 C 569.839844 668.414062 569.648438 673.324219 571.917969 675.777344 C 569.839844 677.476562 567.574219 679.175781 570.59375 681.820312 C 566.441406 682.765625 563.417969 685.03125 561.152344 688.808594 C 559.453125 691.261719 556.808594 692.773438 553.410156 692.773438 Z M 553.410156 692.773438 " fill-opacity="1" fill-rule="nonzero"/><path fill="#050505" d="M 584.570312 378.578125 C 585.703125 372.535156 582.113281 365.738281 587.214844 360.074219 C 587.402344 366.683594 587.589844 373.292969 587.589844 379.898438 C 589.480469 382.734375 588.535156 385.941406 588.722656 388.773438 C 587.78125 395.761719 590.613281 402.9375 587.214844 409.542969 C 585.890625 409.167969 584.757812 408.601562 583.4375 408.222656 C 582.679688 407.84375 581.925781 407.277344 581.546875 406.523438 C 581.171875 405.769531 580.980469 405.011719 580.601562 404.257812 C 579.46875 395.382812 580.601562 386.886719 584.570312 378.578125 Z M 584.570312 378.578125 " fill-opacity="1" fill-rule="nonzero"/><path fill="#dadada" d="M 587.589844 388.398438 C 587.589844 385.566406 587.589844 382.734375 587.78125 379.898438 C 589.855469 381.222656 590.234375 383.109375 590.234375 385.375 C 590.234375 398.214844 590.234375 411.242188 590.234375 424.082031 C 590.234375 426.347656 589.667969 428.238281 587.78125 429.558594 C 587.78125 426.347656 587.78125 422.949219 587.78125 419.742188 C 588.535156 409.355469 588.535156 398.972656 587.589844 388.398438 Z M 587.589844 388.398438 " fill-opacity="1" fill-rule="nonzero"/><path fill="#dfdfdf" d="M 607.609375 176.164062 C 607.609375 167.101562 607.609375 158.226562 607.609375 149.164062 C 611.195312 154.828125 611.386719 170.691406 607.609375 176.164062 Z M 607.609375 176.164062 " fill-opacity="1" fill-rule="nonzero"/><path fill="#242424" d="M 321.316406 745.074219 C 333.214844 743.375 344.921875 742.808594 356.820312 745.453125 C 356.253906 746.773438 355.308594 746.773438 354.175781 746.585938 C 346.054688 745.832031 337.933594 745.832031 329.8125 746.585938 C 326.605469 747.339844 324.148438 745.640625 321.316406 745.074219 Z M 321.316406 745.074219 " fill-opacity="1" fill-rule="nonzero"/><path fill="#2a2a2a" d="M 386.65625 186.171875 C 388.355469 195.234375 388.734375 204.109375 386.28125 212.984375 C 385.335938 206 385.335938 198.824219 386.28125 191.835938 C 384.957031 189.761719 385.144531 187.871094 386.65625 186.171875 Z M 386.65625 186.171875 " fill-opacity="1" fill-rule="nonzero"/><path fill="#a1a1a1" d="M 329.625 746.585938 C 337.746094 744.699219 345.867188 744.699219 353.988281 746.585938 C 345.867188 746.585938 337.746094 746.585938 329.625 746.585938 Z M 329.625 746.585938 " fill-opacity="1" fill-rule="nonzero"/><path fill="#a8a8a8" d="M 509.597656 168.988281 C 501.476562 168.988281 493.542969 168.988281 485.425781 168.988281 C 493.542969 166.914062 501.664062 166.914062 509.597656 168.988281 Z M 509.597656 168.988281 " fill-opacity="1" fill-rule="nonzero"/><path fill="#c9c9c9" d="M 212.160156 534.355469 C 212.160156 542.472656 212.160156 550.402344 212.160156 558.523438 C 210.273438 550.402344 210.085938 542.285156 212.160156 534.355469 Z M 212.160156 534.355469 " fill-opacity="1" fill-rule="nonzero"/><path fill="#b2b2b2" d="M 386.28125 191.648438 C 386.28125 198.632812 386.28125 205.808594 386.28125 212.796875 C 385.902344 212.984375 385.523438 212.984375 385.144531 213.171875 C 385.523438 206 383.824219 198.824219 386.28125 191.648438 Z M 386.28125 191.648438 " fill-opacity="1" fill-rule="nonzero"/><path fill="#a3a3a3" d="M 583.058594 407.089844 C 583.246094 407.46875 583.246094 408.035156 583.4375 408.410156 C 583.246094 414.453125 583.058594 420.496094 582.871094 426.726562 C 580.035156 441.078125 568.515625 449.195312 559.453125 459.015625 C 561.152344 462.035156 563.796875 459.769531 565.308594 461.09375 C 568.140625 463.167969 571.160156 464.867188 574.371094 466.378906 C 577.582031 467.890625 578.902344 470.34375 577.394531 473.742188 C 575.882812 498.289062 569.648438 522.082031 563.039062 545.683594 C 560.207031 553.800781 552.84375 556.632812 546.234375 560.410156 C 543.777344 561.730469 539.058594 562.296875 540 565.886719 C 540.757812 569.285156 545.289062 567.585938 548.121094 567.773438 C 550.199219 567.964844 552.277344 567.398438 554.355469 567.207031 C 557.1875 567.019531 559.640625 567.585938 559.265625 571.363281 C 556.996094 576.269531 557.1875 581.558594 556.054688 586.84375 C 550.199219 596.851562 539.625 596.476562 530.179688 598.742188 C 528.671875 599.117188 526.972656 598.929688 525.269531 599.308594 C 523.949219 599.496094 522.4375 600.0625 522.0625 601.574219 C 521.683594 603.648438 523.195312 604.59375 524.703125 605.160156 C 530.9375 607.992188 537.546875 607.425781 543.96875 607.804688 C 547.933594 607.992188 553.21875 607.046875 551.898438 614.035156 C 551.332031 617.8125 550.765625 621.398438 550.011719 625.175781 C 547.554688 631.027344 540.757812 629.894531 536.414062 633.671875 C 540.378906 637.824219 547.367188 634.050781 550.199219 639.527344 C 547.742188 647.832031 547.554688 655.765625 555.109375 661.996094 C 556.808594 663.503906 557.753906 665.769531 559.074219 667.660156 C 560.964844 672.003906 560.585938 676.34375 559.832031 680.6875 C 559.453125 682.199219 558.128906 683.707031 556.429688 683.707031 C 554.542969 683.519531 554.730469 681.632812 554.921875 680.308594 C 555.296875 676.910156 553.597656 674.457031 551.898438 672.003906 C 550.578125 670.679688 551.144531 667.28125 548.121094 667.847656 C 545.667969 668.226562 545.476562 670.679688 544.722656 672.570312 C 543.210938 675.96875 544.15625 681.632812 537.546875 680.6875 C 535.65625 678.988281 535.28125 675.402344 531.691406 675.589844 C 535.65625 693.339844 534.902344 692.773438 519.417969 689.183594 C 510.917969 674.644531 504.875 659.351562 503.363281 642.359375 C 503.175781 639.714844 502.796875 637.257812 502.421875 634.804688 C 502.230469 628.007812 502.421875 621.210938 502.230469 614.414062 C 502.796875 590.054688 515.640625 571.738281 530.9375 554.179688 C 536.980469 547.382812 543.210938 540.585938 543.210938 530.578125 C 543.023438 530.011719 542.644531 529.445312 541.890625 529.632812 C 537.925781 530.765625 535.28125 533.597656 533.015625 536.429688 C 524.703125 546.816406 513.75 553.046875 501.476562 557.578125 C 498.453125 558.710938 495.621094 559.089844 492.789062 556.824219 C 491.46875 555.125 491.65625 553.425781 492.035156 552.480469 C 491.84375 560.597656 491.46875 569.664062 492.410156 578.726562 C 489.203125 590.054688 490.710938 601.761719 490.523438 613.28125 C 492.222656 631.21875 492.789062 649.15625 499.398438 666.335938 C 502.988281 672.378906 507.332031 678.042969 504.121094 685.785156 C 503.554688 687.296875 503.363281 689.5625 501.476562 689.5625 C 499.019531 689.5625 499.964844 687.296875 499.589844 685.785156 C 498.644531 682.386719 497.699219 679.175781 492.789062 677.855469 C 493.542969 682.386719 495.8125 685.785156 495.433594 689.75 C 494.867188 694.847656 487.878906 699.382812 483.15625 697.304688 C 480.324219 696.171875 481.457031 693.714844 481.269531 691.828125 C 481.082031 687.296875 480.136719 683.140625 475.039062 680.6875 C 474.09375 684.84375 476.738281 687.675781 476.925781 691.074219 C 477.113281 697.304688 474.28125 699.757812 468.238281 698.058594 C 463.519531 696.738281 458.984375 695.039062 454.265625 693.527344 C 441.234375 685.976562 436.703125 672.945312 431.792969 660.105469 C 427.257812 648.210938 423.292969 636.125 419.140625 624.042969 C 419.894531 620.265625 421.78125 618.945312 425.9375 618.753906 C 437.835938 618.566406 448.789062 614.414062 459.550781 608.75 C 451.621094 605.539062 443.121094 605.914062 435.191406 603.460938 C 431.601562 602.328125 427.824219 601.949219 424.050781 601.195312 C 419.515625 600.25 415.738281 598.175781 412.90625 594.398438 C 410.453125 589.867188 410.828125 584.769531 409.128906 580.046875 C 409.507812 576.082031 410.828125 573.25 415.550781 573.816406 C 423.671875 574.195312 431.792969 574.570312 439.914062 573.628906 C 447.65625 573.4375 455.019531 570.796875 462.195312 568.152344 C 461.628906 564.566406 458.984375 565.132812 457.097656 564.941406 C 442.179688 563.621094 428.203125 559.089844 414.417969 553.800781 C 409.695312 551.914062 406.296875 549.269531 404.785156 544.550781 C 403.464844 537.375 402.144531 530.011719 401.007812 522.835938 C 398.367188 529.066406 399.308594 535.488281 399.121094 541.71875 C 399.875 543.226562 400.441406 545.117188 398.742188 546.058594 C 397.042969 547.195312 395.53125 545.871094 394.589844 544.550781 C 392.511719 541.71875 390.621094 538.695312 388.734375 535.675781 C 378.914062 520.382812 364.941406 509.996094 348.886719 502.253906 C 346.433594 501.121094 343.789062 499.988281 340.957031 500.367188 C 339.257812 499.988281 337.367188 499.800781 335.101562 499.421875 C 335.289062 502.253906 337.179688 502.820312 338.878906 503.765625 C 346.808594 508.484375 354.554688 513.773438 361.730469 519.625 C 362.863281 520.570312 363.617188 521.703125 363.804688 523.214844 C 362.105469 526.613281 359.273438 525.855469 356.441406 525.289062 C 350.019531 523.78125 343.601562 522.269531 336.992188 522.648438 C 333.214844 522.835938 329.4375 523.402344 326.035156 525.289062 C 323.582031 526.613281 320.183594 527.933594 321.128906 531.332031 C 321.882812 534.355469 325.28125 534.164062 327.738281 533.976562 C 339.257812 533.222656 350.210938 536.054688 360.972656 539.828125 C 371.738281 543.605469 380.992188 549.460938 386.28125 560.222656 C 387.789062 564.375 389.113281 568.71875 390.621094 572.871094 C 391.378906 575.136719 391.945312 577.78125 389.867188 579.292969 C 387.414062 581.179688 384.957031 579.480469 382.691406 578.160156 C 371.925781 571.171875 359.839844 569.851562 347.375 571.363281 C 345.300781 571.550781 341.898438 571.738281 341.710938 574.570312 C 341.523438 577.027344 344.542969 577.402344 346.433594 577.96875 C 360.785156 581.746094 372.871094 590.054688 385.523438 597.230469 C 389.488281 599.496094 391.378906 603.082031 392.890625 607.046875 C 390.8125 615.734375 390.054688 624.796875 386.089844 633.292969 C 381.558594 643.300781 375.515625 651.796875 366.640625 658.40625 C 363.050781 661.050781 362.863281 661.617188 364.75 664.828125 C 367.015625 667.46875 365.882812 669.738281 363.804688 671.8125 C 357.195312 674.457031 350.210938 675.402344 343.222656 675.023438 C 324.335938 672.757812 305.265625 671.625 286.566406 668.605469 C 272.78125 666.335938 259.941406 662.371094 248.796875 653.6875 C 243.699219 649.53125 241.246094 643.300781 237.277344 638.203125 C 231.234375 634.617188 230.292969 628.761719 230.480469 622.34375 C 230.101562 621.585938 229.726562 620.644531 229.160156 619.886719 C 230.859375 617.054688 233.3125 616.679688 236.523438 616.867188 C 256.164062 618.945312 273.539062 612.523438 290.535156 603.839844 C 292.800781 602.707031 296.953125 601.382812 295.820312 598.175781 C 294.6875 594.777344 290.910156 596.851562 288.269531 597.042969 C 287.511719 597.042969 286.945312 597.230469 286.191406 597.230469 C 275.804688 596.285156 265.605469 596.664062 255.21875 597.042969 C 247.664062 596.285156 240.113281 594.964844 232.558594 592.886719 C 227.835938 591.566406 223.304688 589.867188 220.472656 585.523438 C 218.960938 577.027344 217.449219 568.71875 217.261719 560.03125 C 216.128906 555.691406 217.070312 551.347656 216.882812 546.816406 C 219.527344 542.09375 222.546875 545.492188 225.003906 546.816406 C 233.5 551.535156 242.1875 556.257812 251.820312 558.898438 C 256.542969 560.222656 261.453125 560.976562 266.359375 560.976562 C 273.539062 561.355469 280.714844 561.730469 288.078125 560.976562 C 289.023438 560.976562 289.96875 560.976562 290.910156 560.597656 C 293.367188 559.84375 296.578125 559.84375 296.578125 556.445312 C 296.578125 553.613281 293.554688 553.234375 291.289062 552.480469 C 275.046875 547.382812 259.75 540.394531 246.34375 529.820312 C 239.167969 523.96875 233.125 517.171875 226.515625 510.75 C 223.304688 507.542969 223.113281 503.199219 221.980469 499.234375 C 224.25 486.960938 227.457031 474.875 232.746094 463.546875 C 237.84375 461.28125 239.921875 465.625 242.753906 468.265625 C 257.863281 482.617188 275.238281 493.191406 295.253906 499.421875 C 298.464844 500.367188 303.375 503.578125 305.453125 499.234375 C 307.152344 495.835938 302.429688 493.378906 299.789062 491.304688 C 280.148438 475.066406 264.851562 455.804688 255.785156 431.824219 C 253.332031 427.859375 254.464844 424.082031 255.785156 420.117188 C 261.261719 412 266.550781 403.878906 274.292969 397.460938 C 279.015625 396.136719 279.957031 399.914062 280.902344 402.9375 C 288.457031 426.726562 303.5625 445.609375 321.128906 462.792969 C 323.769531 465.433594 327.359375 470.53125 330.757812 468.078125 C 334.15625 465.625 329.246094 461.46875 327.738281 458.449219 C 315.652344 434.28125 308.097656 408.601562 303.941406 381.789062 C 303.1875 377.445312 304.699219 374.046875 306.773438 370.648438 C 311.875 366.492188 317.539062 363.09375 323.769531 360.640625 C 329.058594 358.5625 330.757812 361.394531 331.703125 366.304688 C 335.101562 386.507812 343.410156 405.011719 353.609375 422.574219 C 355.121094 425.214844 356.628906 429.9375 360.21875 428.238281 C 363.050781 426.914062 360.785156 422.382812 359.839844 419.742188 C 356.253906 409.167969 354.742188 398.214844 353.421875 387.265625 C 353.988281 378.199219 353.796875 369.136719 353.609375 360.074219 C 355.121094 353.84375 356.0625 347.613281 360.972656 342.890625 C 361.730469 342.324219 362.671875 341.757812 363.429688 341.003906 C 368.148438 339.117188 368.90625 342.515625 369.851562 345.914062 C 378.347656 373.667969 396.097656 392.550781 423.480469 402.558594 C 424.992188 403.125 426.691406 403.691406 428.203125 403.878906 C 428.957031 404.070312 429.527344 404.070312 430.847656 403.3125 C 428.957031 400.292969 426.125 397.839844 423.292969 395.761719 C 410.453125 385.753906 400.441406 373.480469 392.699219 359.128906 C 391.1875 356.488281 389.300781 353.84375 391 350.632812 C 394.398438 345.914062 398.175781 348.367188 401.386719 350.820312 C 411.207031 357.996094 422.539062 361.960938 434.246094 364.792969 C 436.703125 365.359375 439.15625 366.304688 442.179688 365.171875 C 433.113281 361.773438 425.183594 356.488281 416.304688 352.710938 C 412.90625 347.988281 407.429688 345.535156 402.898438 341.757812 C 400.820312 340.058594 399.308594 338.171875 398.554688 335.714844 C 394.777344 330.050781 389.113281 326.085938 385.710938 320.042969 C 384.769531 315.136719 387.980469 312.113281 391.1875 309.472656 C 395.15625 306.261719 399.5 303.238281 403.464844 300.03125 C 404.976562 298.707031 407.996094 297.574219 406.863281 295.308594 C 405.542969 292.667969 402.710938 293.988281 400.441406 294.554688 C 394.777344 296.066406 389.300781 298.332031 384.203125 301.351562 C 381.371094 303.050781 378.726562 303.804688 375.894531 301.164062 C 373.816406 298.332031 372.492188 295.121094 372.683594 291.53125 C 371.359375 286.058594 373.816406 282.09375 377.96875 278.695312 C 387.601562 270.761719 397.042969 262.832031 409.320312 257.167969 C 405.542969 254.335938 402.519531 255.65625 399.5 255.847656 C 393.644531 256.414062 388.734375 260.378906 382.691406 260.1875 C 375.328125 257.167969 378.160156 249.804688 376.082031 244.707031 C 377.96875 236.398438 381.9375 229.035156 386.46875 221.859375 C 387.789062 219.78125 388.921875 217.328125 390.054688 215.0625 C 390.433594 214.496094 390.8125 213.738281 391.191406 212.984375 C 391.566406 202.222656 391.378906 191.648438 391.757812 180.886719 C 392.132812 171.066406 393.644531 161.625 396.855469 152.375 C 400.066406 149.164062 403.464844 147.464844 407.050781 151.996094 C 409.320312 156.339844 407.808594 160.683594 407.050781 164.835938 C 405.917969 171.824219 406.296875 178.808594 406.296875 185.792969 C 406.296875 188.628906 406.675781 191.460938 410.074219 192.402344 C 412.71875 193.726562 414.984375 193.160156 417.4375 192.027344 C 420.273438 190.703125 422.914062 189.195312 425.75 188.0625 C 436.703125 183.527344 437.078125 183.152344 431.792969 171.824219 C 427.257812 162.003906 421.59375 152.941406 413.285156 145.765625 C 409.320312 142.179688 404.21875 139.34375 405.542969 132.546875 C 411.585938 128.773438 415.171875 133.871094 418.761719 136.890625 C 429.902344 146.144531 438.777344 157.472656 446.523438 169.367188 C 451.433594 176.921875 455.964844 181.074219 464.839844 178.054688 C 469.371094 178.808594 471.070312 182.585938 472.773438 186.171875 C 476.546875 193.726562 480.136719 201.46875 485.046875 208.453125 C 485.613281 199.390625 482.78125 191.460938 479.757812 183.339844 C 478.625 180.507812 476.925781 177.675781 480.324219 175.222656 C 480.703125 175.03125 481.082031 175.03125 481.648438 174.84375 C 483.726562 173.898438 485.800781 174.464844 488.066406 174.464844 C 493.734375 176.542969 496.945312 181.261719 499.589844 186.171875 C 503.742188 193.914062 507.140625 201.84375 510.164062 209.964844 C 510.917969 211.851562 511.296875 214.683594 514.128906 214.117188 C 516.585938 213.550781 516.394531 210.71875 516.394531 208.832031 C 516.394531 200.144531 517.339844 191.460938 514.507812 182.960938 C 513.5625 180.320312 512.808594 177.488281 515.828125 175.410156 C 517.90625 175.03125 519.605469 175.789062 521.304688 176.921875 C 526.59375 178.996094 527.726562 183.90625 529.804688 188.4375 C 532.449219 194.667969 533.582031 201.46875 535.46875 209.207031 C 538.867188 201.089844 537.734375 193.914062 537.546875 187.117188 C 537.546875 184.09375 536.980469 181.453125 540 179.753906 C 545.667969 179.753906 547.933594 175.222656 550.765625 171.632812 C 560.585938 159.359375 572.292969 149.542969 585.511719 141.421875 C 597.410156 134.246094 600.054688 135.757812 601 149.730469 C 603.832031 151.996094 602.886719 155.394531 602.699219 158.226562 C 602.320312 164.269531 604.019531 170.6875 601.753906 176.542969 C 600.433594 186.550781 599.300781 196.746094 597.976562 206.753906 C 597.789062 209.207031 598.355469 211.285156 599.867188 213.363281 C 607.609375 224.3125 613.464844 236.210938 617.996094 248.671875 C 619.316406 252.257812 617.238281 253.390625 614.21875 253.582031 C 611.386719 253.769531 608.554688 253.015625 604.964844 255.089844 C 612.519531 259.054688 618.75 263.777344 621.773438 271.707031 C 621.582031 278.316406 623.847656 284.925781 620.640625 291.34375 C 616.671875 294.933594 611.007812 292.289062 606.097656 294.742188 C 608.929688 300.21875 616.484375 302.671875 615.351562 310.039062 C 604.964844 336.09375 584.570312 352.144531 560.019531 363.660156 C 556.429688 370.460938 563.230469 368.382812 565.496094 370.082031 C 572.484375 374.046875 572.859375 381.597656 575.695312 388.019531 C 574.371094 397.839844 566.0625 403.125 560.964844 410.300781 C 559.453125 412.566406 556.621094 413.886719 555.296875 417.476562 C 562.851562 415.777344 567.949219 411.054688 573.804688 407.46875 C 577.582031 405.203125 580.226562 403.3125 583.058594 407.089844 Z M 583.058594 407.089844 " fill-opacity="1" fill-rule="nonzero"/><path fill="#646464" d="M 307.152344 370.082031 C 309.417969 402.371094 318.859375 432.390625 333.78125 461.09375 C 335.855469 465.058594 341.332031 470.15625 337.367188 473.367188 C 332.648438 477.332031 326.980469 472.230469 323.203125 468.644531 C 303.941406 450.707031 286.757812 431.070312 278.449219 405.203125 C 277.503906 402.371094 276.746094 399.347656 274.480469 396.894531 C 284.300781 386.507812 295.066406 377.632812 307.152344 370.082031 Z M 307.152344 370.082031 " fill-opacity="1" fill-rule="nonzero"/><path fill="#636363" d="M 222.546875 498.855469 C 235.578125 516.792969 251.632812 531.519531 271.835938 540.960938 C 279.203125 544.359375 287.132812 546.625 294.878906 549.460938 C 298.464844 550.78125 303.5625 551.347656 303.753906 556.257812 C 303.753906 561.164062 298.84375 561.921875 295.066406 563.242188 C 293.554688 563.808594 291.855469 564 290.15625 564.1875 C 282.035156 565.320312 274.105469 565.320312 265.984375 564.1875 C 247.664062 564 232.746094 555.5 218.015625 545.871094 C 216.316406 542.09375 216.882812 538.128906 217.636719 534.355469 C 218.015625 522.269531 219.90625 510.5625 222.546875 498.855469 Z M 222.546875 498.855469 " fill-opacity="1" fill-rule="nonzero"/><path fill="#656565" d="M 259.183594 430.882812 C 263.71875 438.8125 266.929688 447.496094 272.214844 455.050781 C 280.714844 467.324219 290.34375 478.464844 302.242188 487.714844 C 305.832031 490.359375 308.851562 493.757812 311.875 496.96875 C 315.273438 500.742188 313.949219 503.386719 309.039062 504.332031 C 305.453125 505.085938 302.054688 504.332031 298.464844 503.386719 C 277.3125 497.722656 259.183594 486.769531 242.945312 472.230469 C 239.542969 469.210938 236.523438 466.191406 233.125 462.980469 C 235.578125 452.40625 240.488281 442.777344 246.34375 433.714844 C 249.929688 429.9375 254.652344 431.070312 259.183594 430.882812 Z M 259.183594 430.882812 " fill-opacity="1" fill-rule="nonzero"/><path fill="#636363" d="M 393.457031 350.253906 C 399.875 365.738281 410.261719 378.390625 422.726562 389.53125 C 427.449219 393.683594 432.546875 397.648438 437.269531 401.804688 C 438.777344 403.125 441.421875 404.070312 440.101562 406.710938 C 438.96875 408.976562 436.324219 408.410156 434.433594 408.035156 C 420.460938 405.578125 408.1875 399.539062 396.855469 391.039062 C 381.179688 378.957031 371.359375 363.09375 366.449219 344.023438 C 366.074219 342.324219 365.316406 341.003906 363.617188 340.25 C 368.527344 336.660156 373.4375 333.074219 377.214844 327.976562 C 381.371094 322.121094 381.746094 322.3125 386.28125 327.785156 C 387.414062 329.109375 388.355469 330.429688 389.300781 331.5625 C 391.378906 337.792969 396.289062 343.269531 393.457031 350.253906 Z M 393.457031 350.253906 " fill-opacity="1" fill-rule="nonzero"/><path fill="#636363" d="M 358.140625 388.585938 C 357.386719 401.804688 363.050781 413.699219 365.507812 426.347656 C 365.882812 428.050781 366.449219 429.558594 366.640625 431.070312 C 366.828125 432.957031 366.828125 435.035156 364.75 435.980469 C 363.050781 436.734375 361.539062 435.980469 360.21875 434.847656 C 355.6875 431.257812 352.285156 426.726562 349.644531 421.816406 C 340.011719 403.691406 331.136719 385.375 328.492188 364.605469 C 328.113281 361.960938 326.792969 360.261719 324.148438 359.886719 C 336.613281 354.03125 348.886719 347.988281 361.351562 342.136719 C 360.40625 347.613281 359.273438 353.277344 358.328125 358.753906 C 357.007812 368.761719 357.007812 378.578125 358.140625 388.585938 Z M 358.140625 388.585938 " fill-opacity="1" fill-rule="nonzero"/><path fill="#646464" d="M 220.847656 585.335938 C 231.992188 588.542969 242.753906 592.886719 254.652344 592.507812 C 265.984375 593.644531 277.3125 593.644531 288.835938 592.507812 C 292.609375 592.507812 296.386719 592.507812 300.164062 592.507812 C 302.054688 592.507812 304.128906 592.886719 304.886719 594.777344 C 305.832031 597.230469 303.941406 598.550781 302.242188 599.875 C 292.609375 607.613281 281.46875 612.523438 269.761719 616.113281 C 256.542969 620.265625 243.320312 621.777344 229.535156 619.320312 C 226.324219 608.179688 222.359375 597.042969 220.847656 585.335938 Z M 220.847656 585.335938 " fill-opacity="1" fill-rule="nonzero"/><path fill="#636363" d="M 342.464844 685.976562 C 352.097656 686.542969 361.351562 683.140625 370.984375 682.953125 C 373.4375 687.296875 370.417969 691.449219 370.226562 695.605469 C 369.472656 702.214844 369.472656 708.820312 370.226562 715.429688 C 370.226562 724.304688 375.515625 730.726562 381.179688 736.765625 C 368.90625 739.410156 356.628906 740.730469 343.976562 740.542969 C 338.3125 736.199219 337.367188 729.402344 335.667969 722.984375 C 335.480469 715.429688 335.480469 707.878906 335.667969 700.324219 C 335.667969 694.847656 339.445312 690.695312 342.464844 685.976562 Z M 342.464844 685.976562 " fill-opacity="1" fill-rule="nonzero"/><path fill="#646464" d="M 299.976562 684.464844 C 309.230469 686.164062 318.671875 685.785156 328.113281 685.785156 C 331.136719 685.785156 334.347656 685.03125 336.988281 686.917969 C 336.421875 689.5625 334.347656 690.128906 332.269531 690.316406 C 326.980469 691.074219 324.148438 694.472656 322.636719 699.191406 C 319.617188 708.820312 317.726562 718.640625 320.75 728.835938 C 321.695312 731.859375 323.582031 735.066406 319.992188 737.710938 C 309.417969 738.84375 299.03125 736.390625 288.644531 734.878906 C 279.015625 723.171875 285.058594 698.625 293.933594 687.675781 C 295.632812 686.164062 298.085938 685.785156 299.976562 684.464844 Z M 299.976562 684.464844 " fill-opacity="1" fill-rule="nonzero"/><path fill="#646464" d="M 260.316406 670.492188 C 266.929688 675.023438 274.480469 677.476562 281.847656 680.121094 C 280.714844 684.464844 277.125 687.484375 275.046875 691.449219 C 270.515625 699.570312 268.0625 708.253906 268.0625 717.507812 C 268.0625 720.90625 268.628906 724.683594 264.851562 726.757812 C 255.40625 725.25 247.664062 719.585938 239.167969 715.621094 C 234.066406 706.554688 236.902344 690.507812 246.34375 679.554688 C 249.929688 675.023438 253.140625 669.359375 260.316406 670.492188 Z M 260.316406 670.492188 " fill-opacity="1" fill-rule="nonzero"/><path fill="#a2a2a2" d="M 366.640625 694.28125 C 367.960938 690.507812 367.207031 685.976562 370.984375 683.140625 C 377.027344 681.632812 383.070312 680.121094 389.300781 678.609375 C 393.832031 677.476562 394.398438 680.308594 393.457031 683.332031 C 389.300781 698.4375 392.324219 712.785156 398.554688 726.570312 C 399.875 729.59375 399.5 732.046875 396.476562 733.746094 C 395.53125 734.3125 394.398438 734.691406 393.457031 735.257812 C 389.488281 737.144531 385.335938 736.390625 381.179688 736.957031 C 375.136719 737.523438 371.738281 734.3125 370.039062 728.835938 C 368.90625 724.871094 367.773438 720.90625 366.828125 716.941406 C 365.507812 709.386719 365.507812 701.835938 366.640625 694.28125 Z M 366.640625 694.28125 " fill-opacity="1" fill-rule="nonzero"/><path fill="#a0a0a0" d="M 260.316406 670.492188 C 245.023438 681.632812 238.601562 696.925781 239.167969 715.621094 C 229.726562 710.519531 221.980469 703.722656 216.316406 694.472656 C 214.050781 678.800781 223.113281 664.261719 238.410156 659.351562 C 241.8125 658.21875 244.832031 658.785156 247.855469 660.296875 C 252.007812 663.503906 256.164062 666.902344 260.316406 670.492188 Z M 260.316406 670.492188 " fill-opacity="1" fill-rule="nonzero"/><path fill="#a2a2a2" d="M 319.992188 737.898438 C 313.761719 723.738281 315.082031 709.765625 319.992188 695.605469 C 322.261719 689.183594 325.46875 686.164062 332.082031 687.109375 C 333.589844 687.296875 335.289062 687.109375 336.988281 686.917969 C 338.878906 687.296875 340.578125 686.730469 342.277344 685.976562 C 343.410156 691.074219 339.066406 695.039062 339.445312 699.757812 C 338.3125 707.878906 338.5 715.808594 339.445312 723.925781 C 340.765625 729.59375 342.277344 735.066406 343.601562 740.730469 C 335.855469 741.109375 327.738281 741.488281 319.992188 737.898438 Z M 319.992188 737.898438 " fill-opacity="1" fill-rule="nonzero"/><path fill="#a0a0a0" d="M 264.851562 726.757812 C 263.339844 712.03125 265.792969 698.058594 274.292969 685.597656 C 276.179688 682.765625 278.070312 680.121094 281.847656 679.933594 C 287.511719 682.953125 293.933594 682.953125 299.976562 684.464844 C 288.269531 699.570312 285.246094 716.753906 288.644531 735.066406 C 280.714844 732.425781 272.214844 731.292969 264.851562 726.757812 Z M 264.851562 726.757812 " fill-opacity="1" fill-rule="nonzero"/><path fill="#656565" d="M 247.855469 660.105469 C 230.292969 663.695312 221.414062 672.570312 217.828125 689.941406 C 217.449219 691.449219 216.695312 692.960938 216.128906 694.472656 C 205.363281 681.820312 203.097656 667.46875 206.875 651.796875 C 213.484375 640.660156 223.492188 639.527344 234.824219 641.980469 C 238.410156 648.589844 242.945312 654.441406 247.855469 660.105469 Z M 247.855469 660.105469 " fill-opacity="1" fill-rule="nonzero"/><path fill="#636363" d="M 516.773438 174.84375 C 521.496094 186.171875 521.304688 198.257812 520.925781 210.152344 C 520.738281 214.496094 521.117188 220.726562 516.394531 221.671875 C 510.917969 222.804688 509.972656 216.382812 508.652344 212.417969 C 503.929688 199.011719 497.886719 186.363281 489.769531 174.65625 C 497.886719 173.144531 506.007812 173.523438 514.128906 174.464844 C 514.882812 174.65625 515.828125 174.84375 516.773438 174.84375 Z M 516.773438 174.84375 " fill-opacity="1" fill-rule="nonzero"/><path fill="#646464" d="M 383.636719 256.980469 C 391.757812 253.957031 399.875 250.558594 408.941406 251.316406 C 410.640625 251.503906 412.339844 251.503906 413.851562 251.691406 C 415.738281 252.070312 417.628906 253.015625 418.003906 255.089844 C 418.382812 257.546875 416.496094 258.300781 414.796875 259.054688 C 411.394531 260.566406 407.808594 261.890625 404.410156 263.589844 C 394.210938 269.0625 385.710938 277.183594 376.648438 284.167969 C 374.382812 285.867188 373.625 288.324219 373.4375 290.96875 C 372.304688 289.265625 372.117188 287.191406 372.117188 285.113281 C 370.792969 277.5625 371.359375 270.007812 371.925781 262.457031 C 372.117188 260.566406 372.304688 258.679688 372.492188 256.789062 C 376.460938 254.902344 380.046875 259.246094 383.636719 256.980469 Z M 383.636719 256.980469 " fill-opacity="1" fill-rule="nonzero"/><path fill="#7e7e7e" d="M 393.457031 350.253906 C 390.621094 344.402344 387.980469 338.550781 389.300781 331.75 C 391.566406 333.828125 393.832031 335.714844 396.097656 337.792969 C 402.519531 338.738281 406.484375 343.835938 411.585938 347.046875 C 413.664062 348.367188 415.363281 350.066406 418.003906 350.253906 C 419.140625 350.066406 420.648438 349.3125 421.40625 349.878906 C 430.847656 355.164062 440.480469 359.695312 451.054688 362.71875 C 452.566406 363.09375 453.886719 364.792969 453.132812 366.492188 C 452.375 368.570312 450.296875 368.570312 448.410156 368.761719 C 432.925781 369.136719 418.949219 364.226562 405.730469 356.675781 C 401.765625 354.410156 398.742188 349.878906 393.457031 350.253906 Z M 393.457031 350.253906 " fill-opacity="1" fill-rule="nonzero"/><path fill="#616161" d="M 376.835938 300.597656 C 381.746094 300.03125 384.957031 296.066406 389.300781 294.367188 C 395.910156 291.535156 402.332031 289.078125 409.695312 289.644531 C 411.960938 289.832031 414.796875 289.078125 415.550781 292.101562 C 416.304688 294.742188 414.039062 296.441406 412.152344 297.765625 C 406.296875 302.296875 400.441406 306.640625 394.777344 310.980469 C 391.566406 313.4375 388.546875 315.890625 386.28125 319.476562 C 381.746094 313.625 379.101562 307.207031 376.835938 300.597656 Z M 376.835938 300.597656 " fill-opacity="1" fill-rule="nonzero"/><path fill="#646464" d="M 481.457031 174.84375 C 485.425781 185.039062 489.769531 195.425781 490.710938 206.566406 C 491.089844 210.339844 493.355469 215.816406 488.824219 217.328125 C 484.480469 218.839844 483.535156 212.984375 481.835938 209.964844 C 476.359375 199.390625 471.070312 188.628906 465.59375 177.863281 C 470.695312 175.597656 475.980469 175.03125 481.457031 174.84375 Z M 481.457031 174.84375 " fill-opacity="1" fill-rule="nonzero"/><path fill="#636363" d="M 540.945312 179.1875 C 543.023438 189.949219 542.832031 200.710938 540.757812 211.472656 C 540.191406 214.117188 540.191406 217.894531 536.414062 217.515625 C 533.582031 217.328125 532.824219 214.117188 532.636719 211.472656 C 531.878906 199.011719 526.972656 187.871094 522.4375 176.542969 C 528.671875 175.410156 534.523438 179.1875 540.945312 179.1875 Z M 540.945312 179.1875 " fill-opacity="1" fill-rule="nonzero"/><path fill="#a1a1a1" d="M 235.011719 641.980469 C 232.746094 642.734375 230.667969 644.246094 228.402344 644.246094 C 220.28125 644.246094 213.296875 647.078125 206.875 651.796875 C 209.328125 641.792969 213.671875 632.539062 219.714844 624.230469 C 222.546875 620.453125 225.003906 619.132812 226.515625 624.988281 C 232.558594 628.574219 233.5 634.804688 234.636719 640.847656 C 234.824219 641.226562 234.824219 641.601562 235.011719 641.980469 Z M 235.011719 641.980469 " fill-opacity="1" fill-rule="nonzero"/><path fill="#666666" d="M 622.527344 271.140625 C 614.972656 266.042969 608.929688 258.679688 599.675781 256.414062 C 598.355469 256.035156 597.03125 255.089844 597.222656 253.390625 C 597.410156 251.503906 598.921875 250.371094 600.621094 250.371094 C 604.585938 249.992188 608.554688 249.992188 612.519531 249.804688 C 614.785156 249.617188 617.238281 251.125 618.9375 248.292969 C 620.640625 255.847656 623.847656 263.210938 622.527344 271.140625 Z M 622.527344 271.140625 " fill-opacity="1" fill-rule="nonzero"/><path fill="#666666" d="M 616.105469 309.472656 C 611.953125 304.371094 607.230469 300.03125 601.566406 296.441406 C 600.054688 295.5 597.976562 294.367188 598.734375 292.101562 C 599.300781 290.023438 601.566406 289.644531 603.265625 289.644531 C 609.308594 289.644531 615.351562 288.511719 621.207031 290.777344 C 620.828125 294.175781 620.261719 297.386719 619.882812 300.785156 C 618.75 303.617188 617.429688 306.449219 616.105469 309.472656 Z M 616.105469 309.472656 " fill-opacity="1" fill-rule="nonzero"/><path fill="#9c9c9c" d="M 406.296875 132.171875 C 409.507812 136.136719 412.90625 139.914062 416.117188 143.878906 C 415.171875 145.199219 415.550781 147.085938 414.230469 148.21875 C 411.394531 149.730469 410.828125 154.828125 406.296875 153.507812 C 403.84375 149.917969 400.441406 152.183594 397.609375 151.996094 C 399.121094 144.820312 400.820312 137.644531 406.296875 132.171875 Z M 406.296875 132.171875 " fill-opacity="1" fill-rule="nonzero"/><path fill="#191919" d="M 418.003906 350.253906 C 416.117188 352.144531 414.417969 351.390625 412.339844 350.066406 C 406.484375 346.480469 400.820312 342.703125 396.097656 337.792969 C 397.042969 336.851562 397.988281 335.90625 399.121094 334.960938 C 405.542969 339.871094 412.90625 343.648438 418.003906 350.253906 Z M 418.003906 350.253906 " fill-opacity="1" fill-rule="nonzero"/><path fill="#9b9b9b" d="M 383.636719 256.980469 C 380.046875 258.113281 376.269531 265.855469 372.683594 256.980469 C 374.003906 252.824219 375.328125 248.484375 376.835938 244.328125 C 381.371094 247.160156 381.179688 252.824219 383.636719 256.980469 Z M 383.636719 256.980469 " fill-opacity="1" fill-rule="nonzero"/><path fill="#5b5b5b" d="M 259.183594 430.882812 C 255.976562 436.167969 250.6875 432.015625 246.53125 433.714844 C 249.742188 428.992188 252.953125 424.273438 256.164062 419.550781 C 256.164062 423.707031 257.296875 427.292969 259.183594 430.882812 Z M 259.183594 430.882812 " fill-opacity="1" fill-rule="nonzero"/><path fill="#151515" d="M 234.824219 640.847656 C 230.859375 636.125 229.347656 630.273438 226.703125 624.988281 C 228.589844 624.796875 230.101562 623.855469 230.859375 621.964844 C 233.125 627.253906 235.390625 632.539062 237.65625 637.824219 C 236.335938 638.390625 235.390625 639.335938 234.824219 640.847656 Z M 234.824219 640.847656 " fill-opacity="1" fill-rule="nonzero"/><path fill="#919191" d="M 392.511719 180.507812 C 393.832031 191.835938 394.777344 203.167969 391.945312 214.304688 C 391 205.433594 391 196.367188 391.945312 187.496094 C 392.132812 185.230469 392.324219 182.960938 392.511719 180.507812 Z M 392.511719 180.507812 " fill-opacity="1" fill-rule="nonzero"/><path fill="#424242" d="M 513.941406 174.65625 C 505.820312 174.65625 497.699219 174.84375 489.578125 174.84375 C 487.3125 174.65625 484.859375 174.65625 482.589844 174.464844 C 493.167969 172.578125 503.554688 172.578125 513.941406 174.65625 Z M 513.941406 174.65625 " fill-opacity="1" fill-rule="nonzero"/><path fill="#353535" d="M 602.699219 175.976562 C 602.886719 167.101562 604.210938 158.039062 601.941406 149.164062 C 606.476562 158.039062 605.152344 167.101562 602.699219 175.976562 Z M 602.699219 175.976562 " fill-opacity="1" fill-rule="nonzero"/><path fill="#2b2b2b" d="M 391.945312 187.496094 C 391.945312 196.367188 391.945312 205.433594 391.945312 214.304688 C 391.566406 214.496094 391.1875 214.496094 390.8125 214.683594 C 391.1875 205.621094 389.488281 196.558594 391.945312 187.496094 Z M 391.945312 187.496094 " fill-opacity="1" fill-rule="nonzero"/><path fill="#2f2f2f" d="M 217.828125 534.355469 C 218.015625 538.128906 218.015625 542.09375 218.207031 545.871094 C 218.015625 550.59375 217.828125 555.125 217.828125 559.84375 C 215.75 551.347656 215.75 542.851562 217.828125 534.355469 Z M 217.828125 534.355469 " fill-opacity="1" fill-rule="nonzero"/><path fill="#313131" d="M 372.117188 262.457031 C 372.117188 270.007812 372.304688 277.5625 372.304688 285.113281 C 369.851562 277.75 370.417969 270.007812 372.117188 262.457031 Z M 372.117188 262.457031 " fill-opacity="1" fill-rule="nonzero"/><path fill="#7c7c7c" d="M 341.144531 500.175781 C 345.300781 498.101562 348.886719 499.988281 352.664062 501.308594 C 368.90625 507.730469 381.9375 518.117188 391.566406 532.84375 C 393.644531 536.054688 395.34375 539.453125 397.609375 542.472656 C 399.308594 544.550781 398.933594 541.90625 399.308594 541.339844 C 400.632812 551.160156 402.519531 561.164062 403.464844 570.984375 C 404.976562 587.410156 409.128906 603.082031 413.285156 618.945312 C 416.683594 632.160156 421.972656 644.625 426.125 657.464844 C 423.292969 662.5625 418.949219 664.636719 413.472656 664.636719 C 407.242188 655.953125 398.367188 653.121094 388.355469 653.121094 C 382.691406 653.121094 381.179688 652.175781 384.769531 646.511719 C 400.632812 621.210938 401.574219 593.832031 394.210938 565.699219 C 388.546875 544.171875 377.402344 526.046875 360.785156 511.316406 C 354.742188 506.597656 347.566406 503.953125 341.144531 500.175781 Z M 341.144531 500.175781 " fill-opacity="1" fill-rule="nonzero"/><path fill="#646464" d="M 396.289062 733.933594 C 397.234375 732.046875 396.476562 730.347656 395.53125 728.648438 C 388.546875 714.109375 385.144531 699.003906 390.054688 682.953125 C 390.621094 681.253906 391 679.742188 389.113281 678.800781 C 399.5 675.777344 410.074219 673.136719 420.648438 675.023438 C 431.035156 676.910156 440.855469 682.953125 438.589844 702.589844 C 430.660156 721.285156 414.605469 728.835938 396.289062 733.933594 Z M 396.289062 733.933594 " fill-opacity="1" fill-rule="nonzero"/><path fill="#7d7d7d" d="M 249.175781 653.308594 C 262.960938 658.785156 276.746094 663.316406 291.476562 665.394531 C 308.472656 667.660156 325.46875 669.738281 342.464844 670.304688 C 350.019531 671.246094 357.574219 671.8125 365.128906 669.925781 C 373.625 667.660156 377.214844 669.359375 377.96875 675.589844 C 367.015625 679.554688 355.496094 681.253906 343.976562 681.441406 C 333.589844 680.6875 323.203125 680.6875 312.816406 681.441406 C 288.269531 679.742188 266.171875 672.191406 249.175781 653.308594 Z M 249.175781 653.308594 " fill-opacity="1" fill-rule="nonzero"/><path fill="#636363" d="M 414.796875 576.835938 C 411.960938 575.703125 410.453125 577.59375 409.320312 579.671875 C 407.808594 567.773438 406.484375 556.066406 404.976562 544.171875 C 418.382812 552.667969 433.113281 556.824219 448.410156 559.65625 C 454.453125 560.789062 460.496094 561.355469 466.539062 562.296875 C 468.617188 562.675781 471.261719 562.488281 471.636719 565.132812 C 472.203125 568.152344 469.5625 569.285156 467.484375 570.039062 C 459.175781 573.25 450.675781 576.082031 441.613281 576.648438 C 432.734375 577.96875 423.671875 577.96875 414.796875 576.835938 Z M 414.796875 576.835938 " fill-opacity="1" fill-rule="nonzero"/><path fill="#656565" d="M 386.46875 559.84375 C 369.28125 543.226562 348.511719 536.242188 324.714844 537.1875 C 323.394531 537.1875 321.882812 537.1875 320.558594 536.808594 C 317.726562 536.242188 314.707031 535.296875 313.949219 532.277344 C 313.007812 529.253906 315.839844 527.746094 317.726562 526.046875 C 329.058594 516.226562 342.089844 517.925781 355.121094 520.757812 C 358.140625 521.515625 360.972656 522.269531 363.996094 522.835938 C 372.871094 527.933594 375.515625 537.753906 380.613281 545.492188 C 383.445312 550.027344 386.28125 554.367188 386.46875 559.84375 Z M 386.46875 559.84375 " fill-opacity="1" fill-rule="nonzero"/><path fill="#646464" d="M 393.265625 606.671875 C 377.96875 595.53125 362.105469 585.523438 343.789062 580.425781 C 342.464844 580.046875 340.957031 579.859375 339.632812 579.292969 C 336.988281 578.347656 333.589844 577.59375 333.589844 574.195312 C 333.589844 570.230469 337.179688 569.664062 340.011719 568.90625 C 355.6875 565.132812 370.792969 565.699219 384.578125 574.761719 C 387.980469 577.027344 390.621094 578.347656 390.621094 572.304688 C 393.265625 583.636719 393.832031 595.152344 393.265625 606.671875 Z M 393.265625 606.671875 " fill-opacity="1" fill-rule="nonzero"/><path fill="#636363" d="M 413.097656 594.019531 C 427.257812 597.796875 441.421875 601.382812 455.964844 603.082031 C 459.742188 603.460938 463.519531 603.648438 467.292969 603.839844 C 468.429688 603.839844 469.75 604.027344 470.128906 605.347656 C 470.503906 606.671875 469.75 607.613281 468.804688 608.371094 C 466.917969 609.691406 464.839844 611.203125 462.761719 611.957031 C 449.921875 617.246094 437.078125 622.910156 422.726562 621.585938 C 421.027344 621.398438 420.273438 622.71875 419.328125 623.664062 C 417.628906 613.65625 413.664062 604.214844 413.097656 594.019531 Z M 413.097656 594.019531 " fill-opacity="1" fill-rule="nonzero"/><path fill="#9d9d9d" d="M 377.96875 675.589844 C 374.570312 671.4375 369.660156 672.003906 365.128906 671.625 C 364.75 671.058594 363.804688 671.058594 363.617188 670.304688 C 363.996094 668.414062 364.5625 666.527344 364.941406 664.449219 C 377.027344 656.898438 389.488281 654.632812 402.710938 661.617188 C 405.351562 663.128906 408.941406 665.015625 407.996094 668.035156 C 406.863281 671.625 403.085938 670.492188 400.066406 669.359375 C 398.554688 668.792969 396.664062 668.414062 395.53125 669.738281 C 391 675.210938 384.203125 674.269531 377.96875 675.589844 Z M 377.96875 675.589844 " fill-opacity="1" fill-rule="nonzero"/><path fill="#979797" d="M 413.285156 664.828125 C 416.117188 660.105469 421.214844 658.972656 425.9375 657.652344 C 426.125 658.597656 426.691406 659.351562 426.691406 660.296875 C 426.882812 664.070312 431.980469 667.09375 428.957031 671.246094 C 427.824219 672.570312 415.171875 667.46875 413.285156 664.828125 Z M 413.285156 664.828125 " fill-opacity="1" fill-rule="nonzero"/><path fill="#565656" d="M 312.816406 681.253906 C 323.203125 679.367188 333.589844 679.367188 343.976562 681.253906 C 333.589844 681.253906 323.203125 681.253906 312.816406 681.253906 Z M 312.816406 681.253906 " fill-opacity="1" fill-rule="nonzero"/><path fill="#7d7d7d" d="M 583.4375 613.65625 C 578.902344 625.175781 573.238281 635.75 562.097656 642.546875 C 560.207031 643.679688 558.507812 645.191406 556.242188 644.058594 C 553.976562 642.734375 554.542969 640.28125 554.730469 638.390625 C 556.429688 619.132812 558.128906 599.875 562.851562 580.992188 C 566.816406 573.816406 583.4375 570.417969 589.101562 575.515625 C 589.667969 580.425781 589.289062 585.523438 589.289062 590.621094 C 588.722656 595.152344 585.324219 597.042969 581.738281 598.742188 C 579.660156 599.683594 577.394531 600.441406 575.316406 601.382812 C 573.804688 601.949219 572.105469 602.707031 572.105469 604.59375 C 571.917969 606.859375 573.992188 607.425781 575.503906 608.558594 C 578.335938 610.257812 583.4375 608.371094 583.4375 613.65625 Z M 583.4375 613.65625 " fill-opacity="1" fill-rule="nonzero"/><path fill="#646464" d="M 552.277344 613.65625 C 550.578125 609.882812 547.175781 610.824219 544.34375 610.824219 C 536.035156 610.824219 527.726562 610.824219 520.171875 606.859375 C 517.339844 605.347656 513.5625 604.214844 514.316406 599.875 C 515.074219 596.097656 518.851562 595.71875 521.683594 595.53125 C 533.957031 595.152344 545.289062 591.753906 556.242188 586.46875 C 554.921875 595.71875 553.597656 604.59375 552.277344 613.65625 Z M 552.277344 613.65625 " fill-opacity="1" fill-rule="nonzero"/><path fill="#626262" d="M 564.738281 463.546875 C 560.585938 463.925781 555.109375 469.023438 552.464844 464.679688 C 549.632812 459.960938 556.621094 457.316406 559.453125 454.292969 C 566.628906 446.554688 574.371094 439.378906 579.28125 429.9375 C 580.035156 428.425781 581.171875 427.292969 582.871094 426.726562 C 583.058594 436.734375 581.925781 446.742188 580.414062 456.75 C 576.070312 460.714844 571.539062 464.867188 564.738281 463.546875 Z M 564.738281 463.546875 " fill-opacity="1" fill-rule="nonzero"/><path fill="#5d5d5d" d="M 588.722656 575.515625 C 580.226562 577.027344 571.160156 577.027344 563.230469 580.992188 C 563.230469 573.816406 564.929688 566.832031 566.628906 559.84375 C 573.238281 557.199219 577.960938 551.535156 584.945312 549.648438 C 586.457031 557.765625 587.78125 565.886719 589.289062 573.816406 C 589.667969 574.761719 589.667969 575.136719 588.722656 575.515625 Z M 588.722656 575.515625 " fill-opacity="1" fill-rule="nonzero"/><path fill="#626262" d="M 559.261719 571.171875 C 553.597656 569.285156 547.742188 572.304688 542.078125 571.171875 C 540 570.796875 537.734375 570.984375 535.847656 570.230469 C 533.957031 569.472656 531.878906 568.152344 531.878906 565.699219 C 531.691406 563.433594 533.769531 562.488281 535.28125 561.730469 C 544.910156 556.824219 554.730469 552.292969 563.230469 545.492188 C 562.851562 554.367188 560.585938 562.675781 559.261719 571.171875 Z M 559.261719 571.171875 " fill-opacity="1" fill-rule="nonzero"/><path fill="#7b7b7b" d="M 571.726562 675.589844 C 565.683594 677.289062 566.441406 671.625 564.550781 668.792969 C 563.984375 663.316406 560.585938 659.164062 557.1875 655.574219 C 554.542969 652.742188 555.109375 651.230469 558.128906 649.722656 C 567.195312 645.378906 581.171875 652.175781 582.871094 661.804688 C 583.4375 664.261719 583.8125 667.660156 580.980469 668.601562 C 578.335938 669.546875 578.148438 666.335938 577.394531 664.449219 C 576.636719 662.75 575.882812 661.050781 573.050781 661.050781 C 571.726562 665.960938 578.335938 671.4375 571.726562 675.589844 Z M 571.726562 675.589844 " fill-opacity="1" fill-rule="nonzero"/><path fill="#777777" d="M 584.757812 549.648438 C 582.304688 556.632812 575.316406 558.332031 570.027344 562.109375 C 567.949219 563.433594 567.382812 560.976562 566.441406 559.84375 C 568.894531 548.894531 571.160156 537.941406 573.617188 526.988281 C 574.183594 526.800781 574.75 526.613281 575.503906 526.421875 C 580.035156 533.597656 581.546875 542.09375 584.757812 549.648438 Z M 584.757812 549.648438 " fill-opacity="1" fill-rule="nonzero"/><path fill="#5e5e5e" d="M 583.4375 613.65625 C 577.960938 612.714844 572.292969 612.523438 568.328125 607.804688 C 564.171875 602.894531 564.550781 601.195312 570.59375 598.929688 C 576.636719 596.664062 583.058594 595.34375 588.722656 592.132812 C 589.855469 593.074219 589.855469 594.019531 588.914062 595.152344 C 586.648438 601.195312 586.648438 607.992188 583.4375 613.65625 Z M 583.4375 613.65625 " fill-opacity="1" fill-rule="nonzero"/><path fill="#666666" d="M 550.578125 639.148438 C 544.535156 638.769531 538.300781 639.714844 532.636719 636.882812 C 530.746094 635.9375 528.292969 635.371094 528.292969 632.917969 C 528.292969 630.273438 530.9375 629.894531 532.824219 629.328125 C 538.679688 627.628906 544.535156 626.121094 550.578125 624.609375 C 550.386719 629.519531 550.386719 634.425781 550.578125 639.148438 Z M 550.578125 639.148438 " fill-opacity="1" fill-rule="nonzero"/><path fill="#9b9b9b" d="M 564.738281 463.546875 C 568.707031 461.09375 572.671875 458.636719 576.636719 456.183594 C 577.960938 455.425781 579.46875 454.105469 580.601562 456.558594 C 579.660156 462.226562 578.714844 467.890625 577.769531 473.554688 C 574.75 468.457031 568.140625 467.890625 564.738281 463.546875 Z M 564.738281 463.546875 " fill-opacity="1" fill-rule="nonzero"/><path fill="#5e5e5e" d="M 587.589844 388.398438 C 589.667969 398.78125 589.855469 409.355469 587.589844 419.742188 C 587.402344 416.34375 587.402344 413.132812 587.214844 409.734375 C 587.402344 402.558594 587.589844 395.570312 587.589844 388.398438 Z M 587.589844 388.398438 " fill-opacity="1" fill-rule="nonzero"/><path fill="#323232" d="M 588.914062 595.152344 C 588.914062 594.210938 588.722656 593.265625 588.722656 592.132812 C 588.722656 586.65625 588.722656 580.992188 588.722656 575.515625 C 588.914062 574.949219 588.914062 574.382812 589.101562 574.003906 C 590.988281 580.992188 591.179688 588.167969 588.914062 595.152344 Z M 588.914062 595.152344 " fill-opacity="1" fill-rule="nonzero"/><path fill="#7e7e7e" d="M 506.765625 634.804688 C 507.140625 648.023438 509.21875 661.050781 515.261719 673.136719 C 517.71875 678.042969 518.851562 683.332031 519.605469 688.808594 C 516.773438 687.484375 513.75 685.976562 510.917969 684.652344 C 511.109375 676.535156 509.40625 669.167969 502.609375 663.695312 C 495.433594 662.371094 496 656.332031 495.246094 651.421875 C 493.355469 640.46875 492.035156 629.328125 490.902344 618.1875 C 492.410156 607.046875 492.035156 595.910156 492.035156 584.957031 C 491.65625 581.179688 493.542969 579.292969 496.566406 577.214844 C 510.917969 567.019531 525.082031 556.257812 535.28125 541.152344 C 537.355469 538.128906 537.546875 534.542969 540.191406 531.898438 C 542.078125 530.578125 543.210938 527.746094 546.234375 528.6875 C 546.421875 539.261719 540 546.625 534.335938 554.367188 C 528.105469 563.242188 521.304688 571.738281 515.261719 580.804688 C 509.03125 590.242188 506.765625 601.195312 506.765625 612.523438 C 505.632812 619.699219 505.632812 627.253906 506.765625 634.804688 Z M 506.765625 634.804688 " fill-opacity="1" fill-rule="nonzero"/><path fill="#0c0c0c" d="M 493.921875 618 C 493.734375 630.652344 496.566406 643.113281 498.265625 655.574219 C 498.832031 658.972656 501.097656 660.863281 502.421875 663.503906 C 501.855469 664.828125 500.722656 665.769531 499.398438 666.148438 C 496.378906 664.070312 494.488281 661.617188 493.734375 657.839844 C 491.089844 643.300781 488.445312 628.574219 488.445312 613.65625 C 489.390625 603.839844 488.632812 594.210938 488.824219 584.390625 C 488.824219 581.9375 488.257812 579.292969 489.390625 576.835938 C 489.390625 565.320312 488.824219 553.800781 491.84375 541.71875 C 495.054688 546.4375 492.976562 551.347656 493.921875 555.5 C 495.054688 557.011719 496.753906 558.144531 496.753906 560.222656 C 496.753906 568.152344 500.15625 566.640625 504.6875 563.054688 C 516.019531 554.179688 525.835938 543.605469 535.46875 532.84375 C 536.980469 531.144531 537.925781 528.121094 541.324219 529.253906 C 542.644531 530.199219 543.023438 531.332031 541.890625 532.84375 C 532.449219 551.726562 516.960938 565.132812 499.964844 577.027344 C 497.699219 578.539062 495.621094 580.613281 493.542969 582.3125 C 492.976562 594.210938 492.976562 606.105469 493.921875 618 Z M 493.921875 618 " fill-opacity="1" fill-rule="nonzero"/><path fill="#7f7f7f" d="M 564.738281 371.59375 C 560.585938 371.402344 556.429688 371.214844 552.277344 370.835938 C 551.332031 370.648438 549.820312 369.894531 549.632812 368.949219 C 549.066406 367.0625 550.953125 366.683594 552.085938 366.304688 C 554.921875 365.171875 557.753906 364.226562 560.585938 363.285156 C 562.097656 366.304688 564.363281 366.496094 567.007812 365.171875 C 571.351562 363.09375 575.882812 361.019531 580.226562 358.753906 C 584.191406 360.828125 581.738281 364.417969 582.113281 367.25 C 577.769531 373.292969 571.351562 372.726562 564.738281 371.59375 Z M 564.738281 371.59375 " fill-opacity="1" fill-rule="nonzero"/><path fill="#434343" d="M 581.546875 367.4375 C 581.738281 364.417969 582.113281 361.394531 580.226562 358.5625 C 584.191406 358.753906 582.871094 361.773438 583.058594 363.851562 C 583.246094 368.761719 583.246094 373.667969 583.246094 378.578125 C 584.003906 380.089844 584.003906 381.601562 583.246094 383.109375 C 577.394531 382.167969 580.226562 376.5 578.148438 373.480469 C 577.960938 370.648438 580.035156 369.136719 581.546875 367.4375 Z M 581.546875 367.4375 " fill-opacity="1" fill-rule="nonzero"/><path fill="#232323" d="M 583.058594 382.921875 C 583.246094 381.410156 583.246094 380.089844 583.4375 378.578125 C 583.8125 378.578125 584.191406 378.578125 584.570312 378.765625 C 584.003906 387.832031 585.890625 396.894531 583.4375 405.769531 C 578.527344 400.292969 578.335938 389.339844 583.058594 382.921875 Z M 583.058594 382.921875 " fill-opacity="1" fill-rule="nonzero"/><path fill="#9d9d9d" d="M 537.734375 680.308594 C 540 675.210938 542.265625 670.113281 544.910156 665.203125 C 546.234375 662.75 547.367188 658.785156 551.332031 660.863281 C 554.921875 662.5625 555.109375 665.769531 553.03125 669.171875 C 552.652344 669.925781 552.464844 670.871094 552.085938 671.8125 C 547.554688 669.546875 548.121094 671.8125 549.253906 674.835938 C 551.144531 680.121094 552.652344 685.410156 547.742188 690.128906 C 538.492188 692.394531 538.492188 692.394531 537.734375 680.308594 Z M 537.734375 680.308594 " fill-opacity="1" fill-rule="nonzero"/><path fill="#636363" d="M 583.058594 382.921875 C 583.246094 390.472656 583.246094 398.027344 583.4375 405.578125 C 583.246094 406.144531 583.246094 406.523438 583.058594 407.089844 C 578.148438 407.089844 575.316406 411.054688 571.539062 413.320312 C 565.683594 416.910156 560.019531 420.683594 553.21875 422.195312 C 551.144531 422.574219 548.6875 423.140625 547.554688 420.875 C 546.421875 418.417969 548.6875 417.097656 550.199219 415.777344 C 559.261719 407.84375 567.382812 399.160156 573.238281 388.585938 C 575.316406 385.375 573.425781 381.601562 575.125 378.390625 C 576.449219 375.933594 576.828125 372.914062 580.601562 372.914062 C 581.359375 376.3125 582.304688 379.523438 583.058594 382.921875 Z M 583.058594 382.921875 " fill-opacity="1" fill-rule="nonzero"/><path fill="#d4d4d4" d="M 545.101562 305.503906 C 545.101562 320.042969 531.125 333.074219 515.074219 333.449219 C 499.777344 333.640625 485.613281 321.933594 485.613281 308.90625 C 485.425781 291.722656 502.042969 272.652344 516.960938 272.652344 C 532.636719 272.652344 544.910156 287 545.101562 305.503906 Z M 545.101562 305.503906 " fill-opacity="1" fill-rule="nonzero"/><path fill="#939393" d="M 406.296875 153.507812 C 408.753906 151.242188 407.621094 145.199219 413.664062 146.332031 C 417.25 145.578125 418.761719 148.597656 420.273438 150.675781 C 426.503906 158.792969 431.792969 167.480469 435.570312 177.109375 C 437.644531 182.394531 436.511719 185.796875 430.660156 186.929688 C 422.726562 188.628906 416.496094 194.101562 409.320312 197.3125 C 408.941406 198.632812 408.941406 201.46875 406.675781 199.011719 C 405.351562 197.691406 404.976562 195.234375 404.785156 193.160156 C 402.519531 179.753906 402.898438 166.535156 406.296875 153.507812 Z M 406.296875 153.507812 " fill-opacity="1" fill-rule="nonzero"/><path fill="#010101" d="M 465.785156 239.042969 C 472.582031 239.042969 477.871094 244.328125 477.679688 250.9375 C 477.492188 256.980469 472.203125 262.265625 466.160156 262.265625 C 459.929688 262.265625 454.453125 256.601562 454.453125 250.371094 C 454.453125 244.140625 459.550781 238.851562 465.785156 239.042969 Z M 465.785156 239.042969 " fill-opacity="1" fill-rule="nonzero"/><path fill="#010101" d="M 565.308594 243.574219 C 571.726562 243.761719 576.828125 248.671875 576.828125 254.902344 C 576.828125 261.699219 571.351562 267.175781 564.363281 266.796875 C 558.695312 266.609375 553.410156 260.945312 553.597656 255.089844 C 553.597656 248.859375 558.886719 243.574219 565.308594 243.574219 Z M 565.308594 243.574219 " fill-opacity="1" fill-rule="nonzero"/><path fill="#969696" d="M 587.402344 152.183594 C 593.257812 150.296875 596.65625 152.5625 596.65625 159.550781 C 596.84375 165.78125 596.84375 172.390625 595.332031 178.242188 C 593.632812 184.285156 594.199219 190.894531 590.234375 196.179688 C 581.546875 195.425781 575.125 189.761719 568.328125 185.230469 C 565.496094 183.339844 567.949219 179.941406 569.082031 177.863281 C 573.992188 168.613281 580.601562 160.304688 587.402344 152.183594 Z M 587.402344 152.183594 " fill-opacity="1" fill-rule="nonzero"/><path fill="#646464" d="M 331.890625 624.988281 C 337.746094 624.988281 343.789062 624.421875 349.265625 627.0625 C 350.964844 627.820312 353.042969 628.574219 352.664062 631.027344 C 352.476562 632.917969 350.777344 633.671875 349.265625 634.238281 C 337.933594 638.960938 326.414062 642.734375 313.761719 642.167969 C 309.796875 641.980469 306.398438 640.46875 302.996094 638.960938 C 300.921875 638.203125 299.03125 636.691406 299.03125 634.425781 C 299.03125 631.59375 301.109375 630.273438 303.375 629.519531 C 312.628906 625.742188 322.261719 624.796875 331.890625 624.988281 Z M 331.890625 624.988281 " fill-opacity="1" fill-rule="nonzero"/><path fill="#7d7d7d" d="M 540.566406 530.011719 C 529.613281 546.25 516.019531 560.03125 500.34375 571.550781 C 498.453125 572.871094 496.566406 575.328125 494.300781 574.382812 C 491.46875 573.0625 493.734375 570.417969 493.921875 568.152344 C 494.300781 564 494.300781 559.65625 494.488281 555.5 C 509.40625 552.101562 521.492188 543.984375 532.449219 533.789062 C 535.46875 530.953125 537.925781 527.179688 542.078125 525.855469 C 543.402344 527.746094 542.078125 528.878906 540.566406 530.011719 Z M 540.566406 530.011719 " fill-opacity="1" fill-rule="nonzero"/><path fill="#626262" d="M 445.957031 643.300781 C 443.6875 639.527344 446.710938 638.769531 448.976562 637.824219 C 457.285156 634.804688 465.972656 633.859375 474.472656 632.351562 C 476.359375 631.972656 478.4375 632.351562 479.191406 634.617188 C 479.949219 636.691406 478.4375 638.203125 476.925781 639.335938 C 474.09375 641.414062 470.503906 642.359375 467.105469 643.300781 C 460.117188 644.433594 452.941406 644.625 445.957031 643.300781 Z M 445.957031 643.300781 " fill-opacity="1" fill-rule="nonzero"/><path fill="#0f0f0f" d="M 409.128906 197.3125 C 414.984375 191.648438 421.59375 187.496094 429.335938 185.230469 C 434.433594 183.71875 435.757812 181.453125 433.300781 176.542969 C 427.824219 165.589844 422.726562 154.640625 413.472656 146.332031 C 413.472656 144.632812 414.230469 143.6875 415.929688 143.878906 C 425.371094 153.882812 433.113281 165.214844 437.457031 178.621094 C 439.722656 185.417969 439.15625 186.738281 432.167969 188.4375 C 426.316406 189.761719 421.40625 192.78125 416.117188 195.234375 C 414.039062 196.179688 411.960938 197.878906 409.128906 197.3125 Z M 409.128906 197.3125 " fill-opacity="1" fill-rule="nonzero"/><path fill="#121212" d="M 587.402344 152.183594 C 587.96875 155.207031 586.078125 156.90625 584.378906 158.984375 C 579.28125 165.402344 574.183594 171.824219 570.59375 179.375 C 569.273438 182.207031 569.082031 184.285156 572.671875 185.984375 C 578.714844 189.003906 584.378906 192.78125 590.234375 196.179688 C 590.234375 198.824219 588.722656 199.011719 586.648438 198.257812 C 585.136719 197.5 583.4375 196.746094 581.925781 195.992188 C 576.449219 194.667969 571.917969 191.269531 566.628906 189.195312 C 564.171875 188.25 563.417969 185.984375 564.550781 183.339844 C 570.785156 171.824219 575.882812 159.738281 587.402344 152.183594 Z M 587.402344 152.183594 " fill-opacity="1" fill-rule="nonzero"/><path fill="#9c9c9c" d="M 580.601562 372.914062 C 578.335938 378.199219 577.394531 384.054688 573.238281 388.585938 C 571.539062 382.355469 569.648438 376.3125 564.738281 371.59375 C 570.027344 368.949219 575.882812 368.570312 581.546875 367.4375 C 581.359375 369.136719 580.980469 371.027344 580.601562 372.914062 Z M 580.601562 372.914062 " fill-opacity="1" fill-rule="nonzero"/><path fill="#929292" d="M 564.550781 183.339844 C 564.738281 186.550781 566.816406 188.0625 569.839844 189.003906 C 574.371094 190.328125 578.335938 192.78125 581.925781 195.992188 C 575.316406 197.125 570.40625 192.96875 565.496094 189.761719 C 563.230469 188.25 563.230469 185.605469 564.550781 183.339844 Z M 564.550781 183.339844 " fill-opacity="1" fill-rule="nonzero"/><path fill="#3b3b3b" d="M 489.769531 576.835938 C 489.203125 589.109375 490.902344 601.382812 488.632812 613.65625 C 488.632812 601.382812 486.933594 588.921875 489.769531 576.835938 Z M 489.769531 576.835938 " fill-opacity="1" fill-rule="nonzero"/><path fill="#191919" d="M 540.566406 530.011719 C 541.132812 528.6875 541.511719 527.179688 542.078125 525.855469 C 543.777344 523.96875 544.15625 520.757812 547.367188 520.003906 C 549.066406 523.214844 546.042969 525.667969 546.421875 528.5 C 545.101562 530.011719 543.777344 531.519531 542.457031 533.03125 C 541.699219 531.898438 541.132812 530.953125 540.566406 530.011719 Z M 540.566406 530.011719 " fill-opacity="1" fill-rule="nonzero"/><path fill="#8d8d8d" d="M 288.835938 592.507812 C 277.503906 594.777344 266.171875 594.777344 254.652344 592.507812 C 266.171875 592.507812 277.503906 592.507812 288.835938 592.507812 Z M 288.835938 592.507812 " fill-opacity="1" fill-rule="nonzero"/><path fill="#7f7f7f" d="M 358.140625 388.585938 C 356.0625 378.578125 355.875 368.761719 358.140625 358.753906 C 358.140625 368.761719 358.140625 378.578125 358.140625 388.585938 Z M 358.140625 388.585938 " fill-opacity="1" fill-rule="nonzero"/><path fill="#868686" d="M 414.796875 576.835938 C 423.859375 576.835938 432.734375 576.835938 441.800781 576.835938 C 432.734375 578.914062 423.671875 579.105469 414.796875 576.835938 Z M 414.796875 576.835938 " fill-opacity="1" fill-rule="nonzero"/><path fill="#868686" d="M 266.171875 564.1875 C 274.292969 564.1875 282.222656 564.1875 290.34375 564.1875 C 282.222656 566.265625 274.105469 566.265625 266.171875 564.1875 Z M 266.171875 564.1875 " fill-opacity="1" fill-rule="nonzero"/><path fill="#8f8f8f" d="M 363.804688 670.304688 C 364.375 670.679688 364.75 671.246094 365.316406 671.625 C 357.761719 671.058594 350.019531 672.945312 342.65625 670.304688 C 349.644531 670.304688 356.820312 670.304688 363.804688 670.304688 Z M 363.804688 670.304688 " fill-opacity="1" fill-rule="nonzero"/><path fill="#8c8c8c" d="M 506.765625 634.804688 C 504.496094 627.253906 504.6875 619.699219 506.765625 612.148438 C 506.765625 619.699219 506.765625 627.253906 506.765625 634.804688 Z M 506.765625 634.804688 " fill-opacity="1" fill-rule="nonzero"/><path fill="#727272" d="M 445.957031 643.300781 C 452.941406 643.300781 460.117188 643.300781 467.105469 643.300781 C 460.117188 645.566406 452.941406 645.757812 445.957031 643.300781 Z M 445.957031 643.300781 " fill-opacity="1" fill-rule="nonzero"/><path fill="#7e7e7e" d="M 339.632812 724.117188 C 337.558594 715.996094 337.558594 708.066406 339.632812 699.949219 C 339.632812 708.066406 339.632812 715.996094 339.632812 724.117188 Z M 339.632812 724.117188 " fill-opacity="1" fill-rule="nonzero"/><path fill="#838383" d="M 366.640625 694.28125 C 366.640625 701.835938 366.640625 709.386719 366.640625 716.941406 C 364.5625 709.386719 364.375 701.835938 366.640625 694.28125 Z M 366.640625 694.28125 " fill-opacity="1" fill-rule="nonzero"/><path fill="#444444" d="M 493.921875 618 C 492.035156 606.105469 491.84375 594.398438 493.921875 582.503906 C 493.921875 594.210938 493.921875 606.105469 493.921875 618 Z M 493.921875 618 " fill-opacity="1" fill-rule="nonzero"/><path fill="#131313" d="M 497.511719 314.003906 C 509.03125 312.304688 513.75 307.773438 514.128906 299.839844 C 514.316406 295.121094 511.296875 293.800781 508.464844 291.910156 C 505.820312 290.023438 502.421875 287.566406 503.175781 284.546875 C 504.121094 281.335938 508.085938 280.769531 511.675781 280.960938 C 515.449219 281.148438 519.226562 280.960938 523.003906 280.960938 C 525.460938 280.960938 528.105469 280.769531 529.046875 283.414062 C 530.179688 286.433594 528.480469 288.511719 526.402344 290.777344 C 523.949219 293.421875 519.226562 294.175781 519.417969 299.464844 C 519.605469 305.316406 522.25 308.90625 529.804688 311.546875 C 531.503906 312.113281 534.902344 311.546875 533.769531 314.757812 C 533.015625 317.210938 530.179688 316.078125 528.105469 316.078125 C 527.726562 316.078125 527.160156 315.890625 526.78125 315.703125 C 516.015625 311.738281 516.015625 311.738281 506.386719 316.269531 C 502.988281 317.96875 499.964844 318.722656 497.511719 314.003906 Z M 497.511719 314.003906 " fill-opacity="1" fill-rule="nonzero"/><path fill="#676767" d="M 517.339844 283.601562 C 517.71875 283.601562 518.285156 283.601562 518.660156 283.601562 C 520.925781 283.980469 523.761719 282.847656 525.082031 285.113281 C 526.214844 287.191406 523.949219 288.324219 522.628906 289.644531 C 520.550781 291.535156 518.472656 293.609375 515.261719 291.722656 C 514.316406 291.15625 513.183594 290.398438 512.429688 289.644531 C 511.109375 288.511719 508.839844 287.566406 509.597656 285.300781 C 510.351562 283.226562 512.808594 283.792969 514.507812 283.601562 C 515.449219 283.601562 516.394531 283.792969 517.339844 283.601562 C 517.339844 283.792969 517.339844 283.601562 517.339844 283.601562 Z M 517.339844 283.601562 " fill-opacity="1" fill-rule="nonzero"/></svg>