<svg xmlns="http://www.w3.org/2000/svg" xmlns:xlink="http://www.w3.org/1999/xlink" width="1200" zoomAndPan="magnify" viewBox="0 0 900 899.99999" height="1200" preserveAspectRatio="xMidYMid meet" version="1.0"><rect x="-90" width="1080" fill="#ffffff" y="-89.999999" height="1079.999988" fill-opacity="1"/><rect x="-90" width="1080" fill="none" y="-89.999999" height="1079.999988" fill-opacity="1"/><path fill="#0e0c0b" d="M 460.230469 630.851562 C 455.632812 631.269531 450.9375 631.476562 446.339844 631.476562 C 443.730469 631.476562 441.015625 631.375 438.40625 631.269531 C 435.066406 631.0625 431.828125 630.433594 428.589844 629.492188 C 425.773438 628.761719 423.265625 627.507812 420.863281 625.941406 C 420.34375 625.628906 419.820312 625.421875 419.296875 625.628906 C 415.121094 627.300781 410.738281 627.195312 406.457031 626.988281 C 404.367188 626.882812 402.382812 626.464844 400.398438 625.734375 C 397.164062 624.480469 394.867188 622.289062 394.03125 618.839844 C 393.71875 617.691406 393.195312 617.484375 392.253906 617.691406 C 389.121094 618.421875 385.988281 618.421875 382.753906 617.902344 C 379.410156 617.273438 376.28125 616.335938 373.667969 614.035156 C 372.101562 612.574219 370.953125 610.902344 370.535156 608.710938 C 369.492188 602.964844 371.894531 598.683594 376.28125 595.339844 C 376.90625 594.921875 377.53125 594.402344 378.261719 594.085938 C 378.679688 593.878906 378.679688 593.671875 378.367188 593.355469 C 377.847656 592.835938 377.324219 592.3125 376.800781 591.789062 C 371.164062 586.464844 367.089844 579.988281 364.0625 572.886719 C 362.601562 569.542969 361.765625 566.097656 361.242188 562.546875 C 360.722656 559.515625 360.617188 556.382812 360.722656 553.25 C 360.828125 548.65625 361.347656 544.058594 362.078125 539.464844 C 362.808594 535.183594 363.855469 531.003906 365.105469 526.828125 C 366.671875 521.707031 369.074219 516.90625 371.164062 512.101562 C 372.417969 509.175781 373.878906 506.355469 374.714844 503.222656 C 375.757812 499.566406 376.699219 495.808594 377.324219 491.941406 C 377.949219 487.765625 377.324219 483.585938 377.742188 479.515625 C 377.949219 477.53125 378.160156 475.648438 378.261719 473.664062 C 378.367188 472.097656 378.578125 470.53125 378.785156 468.964844 C 378.996094 467.292969 379.097656 465.519531 379.410156 463.847656 C 379.621094 462.070312 379.933594 460.402344 380.144531 458.625 C 380.5625 456.222656 381.082031 453.925781 381.605469 451.628906 C 381.917969 449.957031 382.335938 448.390625 382.648438 446.71875 C 383.066406 444.941406 383.589844 443.167969 383.902344 441.289062 C 384.738281 437.214844 386.199219 433.351562 387.035156 429.277344 C 387.347656 427.292969 387.554688 425.308594 387.035156 423.21875 C 386.722656 422.175781 386.09375 421.339844 385.363281 420.609375 C 382.023438 417.472656 379.097656 413.820312 376.070312 410.476562 C 371.269531 405.046875 367.613281 398.988281 365.628906 391.886719 C 364.898438 389.378906 364.480469 386.871094 364.167969 384.367188 C 363.644531 380.917969 363.855469 377.578125 364.0625 374.234375 C 364.273438 370.371094 365.003906 366.609375 365.941406 362.957031 C 367.195312 358.253906 369.179688 353.867188 371.371094 349.585938 C 372.207031 347.8125 372.101562 346.035156 371.894531 344.261719 C 371.789062 343.425781 371.683594 342.691406 371.683594 341.859375 C 371.683594 340.1875 371.371094 338.515625 371.371094 336.84375 C 371.371094 335.277344 371.058594 333.710938 371.058594 332.25 C 371.058594 329.324219 370.851562 326.503906 371.164062 323.582031 C 371.371094 322.117188 371.269531 320.65625 371.371094 319.195312 C 371.476562 317.417969 371.683594 315.746094 372 314.074219 C 372.417969 311.570312 372.9375 309.167969 373.566406 306.660156 C 374.191406 304.46875 374.921875 302.273438 376.175781 300.289062 C 378.160156 297.15625 380.246094 296.84375 383.277344 298.199219 C 386.929688 299.871094 390.0625 302.378906 393.089844 304.886719 C 398.625 309.375 403.53125 314.390625 408.125 319.820312 C 408.855469 320.65625 409.378906 320.863281 410.421875 320.550781 C 413.660156 319.714844 417 318.984375 420.445312 318.671875 C 423.160156 318.359375 425.875 318.148438 428.695312 318.042969 C 430.054688 318.042969 431.304688 317.941406 432.664062 317.941406 C 436.003906 317.941406 439.449219 318.359375 442.792969 318.671875 C 445.402344 318.984375 447.90625 319.296875 450.414062 319.925781 C 451.769531 320.238281 452.5 319.925781 453.335938 318.984375 C 456.46875 315.433594 459.183594 311.570312 462.628906 308.226562 C 466.179688 304.675781 469.519531 300.8125 473.800781 298.097656 C 475.367188 297.15625 476.933594 296.214844 478.8125 295.796875 C 481.738281 295.171875 484.453125 296.214844 486.019531 298.722656 C 487.480469 301.125 488.316406 303.734375 488.941406 306.453125 C 489.671875 309.375 489.988281 312.300781 490.300781 315.328125 C 490.507812 317.730469 490.71875 320.132812 490.925781 322.535156 C 491.238281 326.714844 491.238281 330.890625 491.136719 335.070312 C 491.03125 337.261719 490.71875 339.351562 490.613281 341.542969 C 490.402344 344.15625 490.089844 346.765625 491.761719 349.167969 C 492.492188 350.109375 492.804688 351.257812 493.433594 352.40625 C 495.3125 356.0625 496.460938 359.925781 497.503906 363.789062 C 498.546875 367.96875 499.175781 372.144531 499.070312 376.429688 C 499.070312 377.785156 499.28125 379.25 499.175781 380.710938 C 498.964844 384.46875 498.546875 388.230469 497.296875 391.886719 C 494.894531 399.195312 491.03125 405.566406 485.808594 411.3125 C 483.929688 413.296875 482.261719 415.488281 480.277344 417.371094 C 477.457031 420.085938 477.144531 423.324219 477.875 426.875 C 478.710938 430.738281 479.753906 434.5 481.007812 438.257812 C 482.050781 441.390625 483.199219 444.523438 484.140625 447.660156 C 485.496094 452.148438 486.75 456.640625 487.898438 461.234375 C 488.734375 464.683594 489.359375 468.234375 489.988281 471.679688 C 490.402344 474.082031 490.613281 476.589844 490.820312 478.992188 C 491.136719 482.019531 491.449219 485.050781 491.65625 488.078125 C 491.867188 491.210938 492.386719 494.34375 493.433594 497.375 C 494.683594 501.027344 496.148438 504.683594 497.921875 508.132812 C 499.28125 510.847656 500.742188 513.5625 501.890625 516.382812 C 502.828125 518.574219 503.664062 520.875 504.292969 523.277344 C 505.441406 527.035156 506.484375 530.898438 507.007812 534.765625 C 507.527344 538.210938 507.945312 541.554688 508.363281 545 C 508.675781 548.027344 508.570312 551.160156 508.570312 554.296875 C 508.570312 555.027344 508.78125 555.445312 509.304688 555.863281 C 511.914062 558.265625 514.734375 560.457031 517.03125 563.171875 C 519.640625 566.097656 521.625 569.335938 523.085938 572.992188 C 524.339844 576.226562 525.175781 579.570312 525.382812 583.121094 C 525.800781 588.132812 524.964844 592.835938 523.292969 597.535156 C 520.578125 605.367188 515.253906 610.902344 508.78125 615.707031 C 506.589844 617.378906 504.1875 618.632812 501.785156 619.988281 C 497.503906 622.289062 493.117188 624.273438 488.523438 625.734375 C 484.765625 626.988281 481.007812 627.824219 477.144531 628.660156 C 473.28125 629.496094 469.417969 630.121094 465.449219 630.433594 C 463.570312 630.539062 461.898438 630.746094 460.230469 630.851562 Z M 497.921875 518.15625 C 497.921875 518.054688 497.816406 518.054688 497.816406 517.949219 C 497.921875 517.425781 497.398438 517.113281 497.191406 516.695312 C 496.148438 514.292969 495.101562 511.890625 493.953125 509.59375 C 492.597656 506.667969 491.238281 503.640625 490.195312 500.507812 C 489.464844 498.417969 488.628906 496.328125 488.421875 494.136719 C 488.105469 491.210938 487.585938 488.285156 487.375 485.257812 C 487.0625 482.230469 486.75 479.199219 486.226562 476.277344 C 485.601562 472.621094 485.078125 468.859375 484.347656 465.207031 C 483.511719 460.714844 482.050781 456.433594 480.796875 452.046875 C 479.335938 447.03125 477.769531 442.019531 476.203125 437.003906 C 475.265625 433.976562 474.324219 430.84375 473.800781 427.605469 C 473.488281 425.726562 473.070312 423.84375 473.382812 421.859375 C 473.699219 419.355469 474.535156 417.058594 476.414062 415.28125 C 478.8125 412.878906 481.007812 410.476562 483.09375 407.867188 C 487.792969 402.332031 491.867188 396.273438 493.535156 388.960938 C 494.265625 385.933594 494.789062 382.902344 495 379.769531 C 495.101562 375.800781 494.789062 371.832031 494.058594 367.863281 C 494.265625 366.820312 493.953125 365.984375 493.433594 365.148438 C 493.117188 363.582031 492.492188 362.015625 492.074219 360.554688 C 490.613281 355.75 488.210938 351.464844 485.914062 347.078125 C 486.644531 345.828125 486.019531 344.46875 486.226562 343.214844 C 486.644531 340.605469 486.4375 337.992188 486.539062 335.382812 C 486.75 329.429688 486.539062 323.582031 486.332031 317.625 C 486.125 313.972656 485.601562 310.421875 484.871094 306.871094 C 484.453125 304.78125 483.722656 302.691406 482.574219 300.917969 C 481.632812 299.347656 480.066406 298.929688 478.710938 299.765625 C 477.246094 300.601562 475.890625 301.4375 474.535156 302.484375 C 470.878906 305.300781 467.640625 308.539062 464.613281 311.988281 C 461.585938 315.328125 458.664062 318.671875 455.53125 321.910156 C 454.277344 323.265625 452.816406 323.894531 451.039062 324.101562 C 451.039062 323.894531 450.9375 323.996094 450.832031 324.101562 C 450.414062 324.207031 450.101562 323.789062 449.683594 323.683594 C 447.804688 323.164062 445.820312 322.953125 443.835938 322.746094 C 441.226562 322.429688 438.71875 322.222656 436.109375 322.011719 C 432.035156 321.804688 427.964844 322.011719 423.890625 322.429688 C 421.28125 322.640625 418.777344 322.953125 416.164062 323.371094 C 413.867188 323.789062 411.46875 324.207031 409.273438 325.148438 C 407.082031 323.996094 405.410156 322.222656 403.636719 320.550781 C 401.546875 318.566406 399.667969 316.375 397.578125 314.390625 C 394.867188 311.777344 392.359375 309.0625 389.226562 306.871094 C 386.929688 305.300781 384.839844 303.527344 382.441406 302.066406 C 380.875 301.125 379.933594 301.4375 379.097656 303.109375 C 377.324219 306.554688 376.695312 310.316406 376.070312 314.074219 C 375.652344 317.105469 375.339844 320.132812 375.132812 323.164062 C 374.816406 327.550781 374.816406 332.039062 375.027344 336.425781 C 375.234375 339.875 375.445312 343.320312 375.546875 346.871094 C 375.546875 347.601562 375.546875 348.332031 375.964844 349.0625 C 373.460938 352.929688 371.683594 357.210938 370.222656 361.597656 C 368.867188 365.773438 367.925781 370.058594 367.613281 374.339844 C 367.40625 377.578125 367.40625 380.816406 367.71875 383.949219 C 368.03125 386.558594 368.554688 389.171875 369.179688 391.675781 C 370.433594 396.167969 372.625 400.136719 375.339844 403.898438 C 379.097656 409.117188 383.171875 413.921875 387.765625 418.308594 C 390.898438 421.339844 391.417969 424.996094 390.792969 429.066406 C 390.375 431.679688 389.644531 434.183594 388.914062 436.796875 C 387.136719 443.585938 385.46875 450.480469 384.109375 457.371094 C 383.378906 461.027344 382.753906 464.683594 382.441406 468.441406 C 382.230469 470.84375 381.8125 473.246094 381.605469 475.648438 C 381.394531 478.363281 381.292969 481.183594 381.292969 484.003906 C 381.1875 489.957031 381.1875 495.910156 381.8125 501.863281 C 382.023438 503.847656 382.441406 505.832031 382.753906 507.714844 C 383.171875 510.117188 383.589844 512.414062 384.007812 514.816406 C 384.425781 517.425781 384.839844 519.933594 385.363281 522.542969 C 385.886719 524.84375 386.304688 527.246094 386.722656 529.542969 C 386.929688 530.898438 387.136719 532.257812 387.347656 533.617188 C 387.871094 536.433594 388.601562 539.253906 389.226562 541.972656 C 390.269531 546.355469 391.105469 550.742188 392.152344 555.027344 C 392.882812 557.949219 393.613281 560.875 394.449219 563.902344 C 394.761719 564.949219 394.761719 566.203125 395.492188 567.140625 C 395.386719 567.664062 395.492188 568.1875 395.597656 568.707031 C 396.117188 570.902344 396.640625 573.09375 397.164062 575.394531 C 397.578125 577.167969 398.101562 578.945312 398.3125 580.71875 C 398.519531 581.972656 398.625 583.226562 399.042969 584.269531 C 399.878906 586.882812 400.191406 589.703125 400.609375 592.417969 C 401.128906 595.238281 401.445312 598.160156 401.757812 600.980469 C 402.070312 603.488281 402.175781 605.890625 400.609375 608.082031 C 399.667969 609.546875 398.730469 611.113281 397.996094 612.785156 C 397.164062 614.664062 397.058594 616.648438 397.578125 618.632812 C 398.207031 620.929688 400.085938 622.183594 402.382812 622.808594 C 402.90625 622.914062 403.007812 622.601562 403.007812 622.183594 C 403.007812 621.140625 403.007812 620.199219 403.007812 619.152344 C 402.90625 617.585938 403.636719 616.335938 404.679688 615.289062 C 405.097656 614.871094 405.515625 614.246094 406.140625 614.664062 C 406.664062 615.082031 406.246094 615.707031 406.140625 616.230469 C 405.515625 618.109375 405.203125 619.988281 405.621094 621.871094 C 405.828125 622.808594 406.246094 623.226562 407.1875 623.332031 C 409.796875 623.644531 412.511719 623.539062 415.121094 623.226562 C 416.792969 623.125 416.898438 622.808594 416.375 621.242188 C 416.269531 621.035156 416.269531 620.824219 416.164062 620.617188 C 414.390625 616.855469 415.332031 613.304688 417.523438 610.171875 C 419.820312 606.828125 423.160156 604.53125 427.128906 603.175781 C 427.859375 602.964844 428.171875 602.546875 428.171875 601.710938 C 428.171875 600.875 427.964844 600.042969 427.964844 599.207031 C 427.859375 592.730469 427.753906 586.359375 427.441406 579.882812 C 427.234375 576.226562 426.921875 572.574219 426.921875 568.917969 C 426.921875 567.976562 427.023438 566.933594 426.605469 565.992188 C 426.921875 565.46875 426.816406 564.949219 426.816406 564.425781 C 426.710938 562.234375 426.503906 560.039062 426.398438 557.847656 C 426.398438 556.28125 426.292969 554.816406 426.292969 553.25 C 426.292969 546.460938 426.191406 539.671875 426.085938 532.882812 C 426.085938 530.691406 426.085938 528.496094 427.234375 526.511719 C 427.441406 526.511719 427.546875 526.617188 427.546875 526.722656 C 427.546875 528.078125 428.171875 529.4375 428.171875 530.796875 C 428.488281 533.09375 428.382812 535.496094 428.488281 537.898438 C 428.695312 543.433594 428.90625 548.96875 429.113281 554.503906 C 429.21875 557.429688 429.320312 560.351562 429.53125 563.277344 C 429.738281 566.515625 429.949219 569.855469 430.054688 573.09375 C 430.261719 577.480469 430.367188 581.765625 430.46875 586.148438 C 430.46875 587.195312 430.367188 588.34375 430.574219 589.386719 C 430.574219 589.386719 430.46875 589.386719 430.46875 589.492188 C 430.46875 589.492188 430.46875 589.597656 430.574219 589.597656 C 430.785156 593.460938 430.785156 597.324219 430.785156 601.191406 C 430.785156 601.609375 430.574219 602.234375 431.515625 602.027344 C 432.558594 601.816406 433.707031 601.609375 434.75 601.503906 C 435.273438 601.398438 435.378906 601.292969 435.378906 600.773438 C 435.378906 595.339844 435.898438 589.910156 436.109375 584.480469 C 436.527344 574.347656 436.734375 564.21875 436.945312 554.085938 C 437.046875 547.925781 437.257812 541.867188 437.257812 535.703125 C 437.257812 533.300781 437.152344 530.796875 437.363281 528.394531 C 437.464844 527.558594 437.570312 526.828125 438.300781 526.304688 C 438.300781 526.511719 438.300781 526.617188 438.300781 526.828125 C 439.03125 529.125 439.449219 531.527344 439.449219 533.929688 C 439.449219 536.644531 439.867188 539.359375 439.867188 542.074219 C 439.972656 549.59375 439.867188 557.113281 439.554688 564.636719 C 439.554688 565.367188 439.554688 566.097656 439.761719 566.722656 C 439.347656 567.246094 439.449219 567.871094 439.449219 568.5 C 439.347656 573.199219 439.554688 577.898438 439.242188 582.597656 C 439.03125 586.046875 439.03125 589.386719 438.824219 592.835938 C 438.71875 595.027344 438.511719 597.324219 438.40625 599.519531 C 438.40625 600.773438 438.40625 600.875 439.660156 600.875 C 440.910156 600.773438 442.058594 600.5625 443.3125 600.5625 C 448.324219 600.355469 453.335938 600.042969 458.347656 599.726562 C 459.394531 599.625 460.332031 599.308594 461.378906 599.308594 C 461.898438 599.308594 462.109375 598.890625 462.003906 598.472656 C 462.003906 597.324219 462.316406 596.28125 462.421875 595.238281 C 462.734375 593.355469 462.941406 591.476562 463.359375 589.597656 C 463.882812 587.402344 464.40625 585.210938 464.71875 582.914062 C 465.554688 578.210938 466.492188 573.511719 467.640625 568.917969 C 467.851562 568.082031 468.164062 567.140625 468.058594 566.203125 C 468.269531 565.679688 468.476562 565.15625 468.6875 564.738281 C 469.417969 562.023438 470.042969 559.203125 470.773438 556.488281 C 471.921875 552.3125 472.96875 548.027344 473.800781 543.746094 C 474.742188 539.671875 475.683594 535.601562 476.414062 531.421875 C 476.933594 528.289062 477.457031 525.261719 477.875 522.125 C 478.292969 519.304688 478.917969 516.589844 479.128906 513.769531 C 479.335938 511.265625 479.753906 508.652344 480.066406 506.148438 C 480.378906 505.832031 480.378906 505.3125 480.484375 504.894531 C 480.589844 504.476562 480.589844 503.953125 481.214844 503.953125 C 481.84375 503.953125 482.050781 504.371094 482.050781 504.789062 C 482.15625 506.148438 482.363281 507.398438 482.261719 508.757812 C 482.050781 510.949219 481.738281 513.144531 481.738281 515.441406 C 481.632812 518.15625 481.214844 520.664062 480.902344 523.378906 C 480.695312 525.46875 480.277344 527.453125 479.960938 529.542969 C 479.546875 532.570312 479.128906 535.496094 478.605469 538.523438 C 478.1875 540.925781 477.664062 543.222656 477.144531 545.625 C 476.621094 548.132812 475.996094 550.640625 475.472656 553.042969 C 474.847656 555.652344 474.117188 558.160156 473.488281 560.769531 C 472.445312 564.738281 471.503906 568.707031 470.566406 572.675781 C 469.730469 576.332031 469 579.988281 468.164062 583.644531 C 467.640625 585.628906 467.433594 587.71875 467.015625 589.703125 C 466.703125 591.058594 466.492188 592.519531 466.285156 593.878906 C 466.074219 595.339844 465.554688 596.804688 465.65625 598.371094 C 465.65625 598.996094 465.972656 599.101562 466.390625 598.996094 C 468.894531 598.472656 471.402344 598.054688 473.90625 597.324219 C 480.589844 595.550781 486.957031 593.148438 492.703125 588.96875 C 494.265625 588.867188 495.417969 588.03125 496.460938 586.984375 C 497.609375 585.835938 498.757812 584.6875 500.011719 583.644531 C 500.324219 583.433594 500.636719 583.121094 500.949219 583.332031 C 501.367188 583.539062 501.261719 583.957031 501.160156 584.269531 C 500.949219 585.105469 500.742188 585.941406 500.21875 586.671875 C 497.191406 590.433594 493.535156 593.460938 489.253906 595.65625 C 483.09375 598.890625 476.414062 600.667969 469.519531 602.027344 C 465.972656 602.757812 462.316406 603.070312 458.765625 603.382812 C 455.320312 603.695312 451.875 603.59375 448.429688 603.90625 C 444.671875 604.21875 441.015625 604.324219 437.257812 604.636719 C 433.8125 605.054688 430.367188 605.367188 427.128906 606.726562 C 423.890625 608.082031 421.179688 610.066406 419.402344 613.199219 C 418.359375 615.082031 418.464844 618.214844 419.714844 619.570312 C 421.910156 621.871094 424.207031 623.957031 427.339844 625.003906 C 429.113281 625.628906 430.886719 626.152344 432.769531 626.570312 C 435.796875 627.300781 438.929688 627.507812 441.957031 627.613281 C 445.925781 627.71875 449.890625 627.71875 453.859375 627.507812 C 457.410156 627.300781 460.960938 626.988281 464.40625 626.675781 C 468.269531 626.257812 472.027344 625.628906 475.890625 625.003906 C 477.457031 624.691406 478.917969 624.167969 480.484375 623.855469 C 483.511719 623.226562 486.4375 622.289062 489.359375 621.136719 C 493.328125 619.570312 497.191406 617.902344 500.84375 615.8125 C 505.125 613.410156 509.09375 610.484375 512.539062 606.933594 C 515.671875 603.59375 517.96875 599.832031 519.429688 595.445312 C 520.476562 592.207031 521.207031 588.867188 520.894531 585.417969 C 520.683594 583.226562 520.578125 581.03125 520.164062 578.839844 C 518.699219 571.839844 514.734375 566.410156 509.304688 561.917969 C 508.886719 561.605469 508.46875 561.1875 508.050781 560.875 C 507.527344 560.457031 507.214844 560.5625 507.109375 561.292969 C 507.007812 562.652344 506.902344 564.007812 506.589844 565.261719 C 505.648438 569.753906 504.710938 574.242188 502.203125 578.210938 C 501.160156 579.882812 500.429688 581.660156 498.964844 583.015625 C 498.339844 583.644531 497.609375 583.851562 496.878906 583.121094 C 496.980469 583.015625 496.980469 582.808594 497.085938 582.703125 C 497.296875 582.703125 497.503906 582.597656 497.296875 582.285156 C 497.296875 582.179688 497.296875 581.972656 497.503906 581.867188 C 497.816406 581.761719 497.714844 581.554688 497.714844 581.347656 C 499.175781 578.734375 499.90625 575.914062 500.949219 573.09375 C 501.996094 570.171875 502.726562 567.246094 503.144531 564.21875 C 503.558594 561.082031 503.769531 557.847656 503.976562 554.710938 C 504.082031 550.953125 504.1875 547.191406 503.769531 543.433594 C 503.664062 542.597656 503.664062 541.65625 503.558594 540.820312 C 503.246094 539.253906 503.144531 537.585938 502.933594 535.914062 C 503.246094 535.183594 502.933594 534.347656 502.726562 533.71875 C 502.515625 533.199219 502.828125 532.363281 502.097656 532.046875 C 501.785156 531.109375 501.578125 530.0625 501.472656 529.125 C 501.261719 527.871094 500.53125 526.929688 500.53125 525.675781 C 500.53125 525.574219 500.636719 525.363281 500.53125 525.261719 C 499.800781 523.066406 499.175781 520.875 498.234375 518.785156 C 498.339844 518.261719 498.234375 518.054688 497.921875 518.15625 Z M 398.101562 598.371094 C 398.207031 596.804688 397.582031 595.445312 397.371094 593.878906 C 397.058594 592.101562 396.746094 590.433594 396.328125 588.761719 C 395.699219 585.730469 395.28125 582.597656 394.65625 579.570312 C 393.925781 576.125 393.195312 572.78125 392.359375 569.4375 C 391.316406 565.050781 390.167969 560.5625 389.121094 556.175781 C 388.390625 553.355469 387.660156 550.535156 387.140625 547.714844 C 386.40625 544.058594 385.46875 540.507812 384.738281 536.957031 C 384.214844 534.242188 383.796875 531.421875 383.277344 528.707031 C 382.753906 526.199219 382.441406 523.589844 382.023438 520.976562 C 381.710938 518.785156 381.292969 516.589844 380.976562 514.398438 C 380.664062 512.203125 380.351562 509.90625 380.039062 507.714844 C 379.828125 506.148438 379.308594 504.683594 379.410156 503.117188 C 379.410156 502.910156 379.410156 502.699219 379.308594 502.492188 C 379.308594 502.28125 379.308594 502.074219 378.996094 502.074219 C 378.785156 502.074219 378.679688 502.28125 378.679688 502.492188 C 378.261719 504.894531 377.429688 507.191406 376.488281 509.488281 C 374.503906 514.1875 372.3125 518.679688 370.535156 523.484375 C 369.492188 526.199219 368.449219 528.914062 367.71875 531.734375 C 366.671875 535.703125 365.839844 539.777344 365.316406 543.851562 C 364.792969 547.609375 364.375 551.265625 364.480469 555.027344 C 364.480469 556.382812 364.273438 557.742188 364.480469 559.097656 C 364.691406 560.769531 365.105469 562.335938 365.316406 564.007812 C 365.839844 567.246094 366.988281 570.273438 368.238281 573.199219 C 370.535156 578.421875 373.667969 583.121094 377.53125 587.300781 C 380.875 590.953125 384.632812 593.878906 389.121094 595.96875 C 391.734375 597.222656 394.550781 598.058594 397.265625 599.207031 C 398.101562 599.519531 398.101562 599.519531 398.101562 598.371094 Z M 388.914062 609.753906 C 388.914062 610.382812 388.914062 611.007812 388.914062 611.53125 C 388.914062 612.15625 389.019531 612.679688 389.121094 613.304688 C 389.226562 614.140625 389.75 614.453125 390.585938 614.351562 C 391.316406 614.246094 392.046875 614.140625 392.777344 614.035156 C 393.71875 613.933594 394.238281 613.515625 394.449219 612.574219 C 394.550781 611.53125 394.867188 610.589844 395.28125 609.753906 C 396.117188 608.1875 397.164062 606.726562 398.207031 605.261719 C 398.730469 604.53125 399.042969 603.800781 398.730469 602.859375 C 398.519531 602.027344 397.789062 601.921875 397.164062 601.816406 C 395.804688 601.710938 394.449219 601.191406 393.089844 600.773438 C 389.75 599.519531 386.40625 598.265625 383.378906 596.386719 C 382.960938 596.175781 382.542969 595.96875 382.125 596.28125 C 379.308594 597.640625 376.699219 599.308594 375.132812 602.234375 C 373.667969 604.949219 373.042969 607.769531 375.445312 610.589844 C 376.175781 611.425781 376.800781 612.367188 378.054688 612.785156 C 378.472656 612.886719 378.679688 612.886719 378.578125 612.261719 C 378.367188 611.007812 378.160156 609.648438 378.367188 608.398438 C 378.578125 606.621094 379.308594 605.160156 380.5625 603.90625 C 380.976562 603.488281 381.5 603.488281 381.917969 603.695312 C 382.230469 603.90625 382.125 604.429688 382.023438 604.742188 C 381.292969 607.144531 380.976562 609.546875 381.292969 612.050781 C 381.394531 612.992188 381.8125 613.617188 382.648438 613.828125 C 383.691406 614.246094 384.839844 614.140625 385.988281 614.246094 C 386.40625 614.246094 386.722656 614.035156 386.617188 613.617188 C 386.40625 613.097656 386.511719 612.46875 386.304688 611.949219 C 385.675781 609.335938 386.617188 607.246094 388.289062 605.472656 C 388.496094 605.261719 388.703125 605.054688 388.914062 605.160156 C 389.226562 605.261719 389.121094 605.578125 389.121094 605.890625 C 389.226562 607.144531 388.703125 608.5 388.914062 609.753906 Z M 388.914062 609.753906 " fill-opacity="1" fill-rule="nonzero"/><path fill="#f6f2e8" d="M 439.867188 566.410156 C 439.660156 565.679688 439.660156 564.949219 439.660156 564.320312 C 439.972656 556.800781 440.078125 549.28125 439.972656 541.761719 C 439.972656 539.046875 439.554688 536.332031 439.554688 533.617188 C 439.554688 531.214844 439.136719 528.8125 438.40625 526.511719 C 438.40625 526.410156 438.40625 526.199219 438.40625 525.992188 C 438.40625 525.574219 438.40625 525.261719 438.40625 524.84375 C 438.40625 524.320312 438.40625 523.691406 437.675781 523.484375 C 436.945312 523.277344 436.421875 523.589844 436.109375 524.320312 C 435.273438 526.304688 434.332031 528.289062 433.5 530.378906 C 433.082031 531.421875 432.140625 532.046875 431.304688 531.527344 C 430.367188 530.898438 429.320312 530.691406 428.171875 530.480469 C 428.171875 529.125 427.546875 527.871094 427.546875 526.410156 C 427.546875 526.199219 427.339844 526.199219 427.234375 526.199219 C 426.921875 526.199219 426.710938 525.992188 426.503906 525.78125 C 425.5625 524.425781 424.414062 523.066406 423.789062 521.5 C 423.578125 521.082031 423.476562 520.457031 422.847656 520.558594 C 422.117188 520.664062 422.429688 521.394531 422.117188 521.8125 C 422.117188 521.917969 422.117188 522.023438 422.117188 522.125 C 422.222656 524.214844 421.699219 526.199219 421.386719 528.289062 C 420.96875 531.945312 420.863281 535.703125 420.761719 539.359375 C 420.65625 542.285156 420.65625 545.3125 420.863281 548.238281 C 421.074219 551.058594 421.074219 553.773438 421.28125 556.59375 C 421.492188 560.351562 421.804688 564.21875 421.699219 567.976562 C 421.699219 568.5 421.804688 569.023438 421.910156 569.542969 C 419.402344 571.007812 416.6875 571.738281 413.867188 572.050781 C 413.660156 571.839844 413.449219 571.839844 413.242188 572.050781 C 410.632812 572.363281 408.023438 572.050781 405.410156 571.421875 C 403.007812 570.902344 400.816406 569.855469 398.730469 568.605469 C 397.683594 567.976562 396.535156 567.453125 395.492188 566.828125 C 394.761719 565.886719 394.761719 564.738281 394.449219 563.589844 C 393.71875 560.667969 392.882812 557.742188 392.152344 554.710938 C 391.105469 550.328125 390.167969 545.941406 389.226562 541.65625 C 388.601562 538.835938 387.871094 536.121094 387.347656 533.300781 C 387.140625 531.945312 386.929688 530.585938 386.722656 529.230469 C 386.304688 526.828125 385.886719 524.527344 385.363281 522.230469 C 384.839844 519.722656 384.425781 517.113281 384.007812 514.503906 C 383.691406 512.101562 383.171875 509.800781 382.753906 507.398438 C 382.441406 505.414062 382.023438 503.535156 381.8125 501.550781 C 381.1875 495.597656 381.1875 489.644531 381.292969 483.691406 C 381.292969 480.871094 381.394531 478.15625 381.605469 475.335938 C 381.8125 472.933594 382.125 470.53125 382.441406 468.128906 C 382.859375 464.371094 383.484375 460.714844 384.109375 457.058594 C 385.46875 450.164062 387.140625 443.273438 388.914062 436.484375 C 389.539062 433.976562 390.269531 431.367188 390.792969 428.753906 C 391.523438 424.785156 391.003906 421.027344 387.765625 417.996094 C 383.171875 413.609375 378.996094 408.804688 375.339844 403.582031 C 372.625 399.824219 370.433594 395.855469 369.179688 391.363281 C 368.449219 388.855469 368.03125 386.246094 367.71875 383.636719 C 367.300781 380.398438 367.40625 377.160156 367.613281 374.027344 C 367.925781 369.640625 368.867188 365.460938 370.222656 361.285156 C 371.683594 356.898438 373.460938 352.71875 375.964844 348.75 C 377.21875 347.289062 378.472656 345.929688 379.414062 344.261719 C 380.351562 343.214844 381.394531 342.066406 382.542969 341.125 C 388.078125 336.84375 393.820312 332.875 399.773438 329.324219 C 399.980469 329.429688 400.191406 329.21875 400.296875 329.21875 C 401.859375 328.488281 403.324219 327.652344 404.992188 327.132812 C 406.457031 326.609375 407.917969 325.878906 409.171875 324.9375 C 411.363281 323.996094 413.660156 323.582031 416.0625 323.164062 C 418.566406 322.746094 421.179688 322.429688 423.789062 322.222656 C 427.859375 321.804688 431.933594 321.597656 436.003906 321.804688 C 438.613281 322.011719 441.226562 322.222656 443.730469 322.535156 C 445.714844 322.847656 447.59375 322.953125 449.578125 323.476562 C 449.996094 323.582031 450.308594 323.894531 450.726562 323.894531 C 450.726562 323.894531 450.832031 323.894531 450.832031 323.894531 L 450.9375 323.894531 C 451.875 324.730469 453.023438 325.25 454.277344 325.667969 C 454.695312 326.191406 455.007812 326.714844 455.84375 326.398438 C 456.050781 326.398438 456.261719 326.503906 456.367188 326.503906 C 456.367188 326.714844 456.574219 326.816406 456.78125 326.816406 C 457.515625 326.714844 458.035156 327.132812 458.664062 327.445312 C 459.707031 327.863281 460.644531 328.59375 461.792969 328.90625 C 463.359375 329.742188 465.03125 330.683594 466.597656 331.519531 C 470.460938 333.503906 473.800781 336.320312 477.351562 338.828125 C 477.457031 339.558594 477.875 339.976562 478.5 340.292969 C 478.917969 340.5 479.441406 340.707031 479.648438 341.125 C 480.277344 342.484375 481.425781 343.320312 482.46875 344.363281 C 482.675781 344.675781 482.992188 344.886719 483.09375 345.199219 C 484.765625 348.855469 486.4375 352.617188 487.0625 356.6875 C 487.792969 361.386719 488.628906 365.984375 488.628906 370.789062 C 488.628906 372.144531 488.628906 373.503906 488.421875 374.863281 C 488.105469 377.472656 487.792969 379.980469 487.167969 382.484375 C 486.644531 384.679688 485.808594 386.769531 485.078125 388.960938 C 484.347656 391.363281 483.410156 393.558594 482.261719 395.75 C 481.425781 397.421875 480.484375 398.988281 479.648438 400.660156 C 478.292969 403.269531 476.933594 405.882812 475.367188 408.285156 C 473.488281 411.105469 470.984375 413.503906 468.894531 416.222656 C 467.746094 417.683594 466.390625 419.042969 465.65625 420.921875 C 464.925781 422.90625 464.09375 424.890625 464.40625 427.082031 C 464.925781 431.050781 466.285156 434.917969 467.539062 438.675781 C 468.164062 440.765625 469.207031 442.75 469.835938 444.839844 C 470.566406 447.554688 471.820312 450.0625 472.652344 452.777344 C 473.28125 454.761719 473.699219 456.851562 474.324219 458.835938 C 475.785156 463.429688 476.726562 468.023438 477.457031 472.726562 C 478.082031 476.695312 478.8125 480.664062 479.128906 484.632812 C 479.441406 488.914062 479.859375 493.195312 479.859375 497.582031 C 479.859375 498 479.859375 498.417969 479.960938 498.730469 C 480.171875 499.878906 480.066406 501.132812 479.960938 502.28125 C 479.859375 503.328125 479.546875 504.476562 480.277344 505.519531 C 479.960938 508.027344 479.546875 510.535156 479.335938 513.144531 C 479.128906 515.964844 478.5 518.679688 478.082031 521.5 C 477.664062 524.632812 477.144531 527.765625 476.621094 530.796875 C 475.890625 534.972656 474.949219 539.046875 474.011719 543.121094 C 473.070312 547.402344 472.132812 551.683594 470.984375 555.863281 C 470.253906 558.578125 469.625 561.398438 468.894531 564.113281 C 468.789062 564.636719 468.476562 565.15625 468.269531 565.574219 C 466.910156 566.515625 465.65625 567.453125 464.195312 568.082031 C 461.273438 569.4375 458.140625 570.484375 454.902344 570.796875 C 451.351562 571.109375 447.90625 570.691406 444.671875 569.230469 C 443 568.707031 441.433594 567.558594 439.867188 566.410156 Z M 432.976562 418.207031 C 434.019531 418.101562 435.273438 418.101562 436.632812 417.890625 C 444.359375 416.640625 450.519531 412.671875 455.425781 406.71875 C 456.574219 405.464844 457.515625 404.105469 458.765625 402.957031 C 462.003906 400.03125 465.65625 397.628906 469.417969 395.332031 C 473.90625 392.617188 477.769531 389.273438 480.277344 384.574219 C 481.527344 382.277344 482.363281 379.875 483.09375 377.367188 C 484.035156 374.339844 484.035156 371.3125 483.410156 368.28125 C 482.78125 364.941406 481.945312 361.597656 480.378906 358.464844 C 478.917969 355.644531 477.144531 353.136719 474.535156 351.363281 C 469.3125 347.601562 463.464844 345.511719 457.304688 344.15625 C 453.859375 343.425781 450.832031 341.859375 448.117188 339.664062 C 444.773438 336.949219 441.746094 333.710938 437.570312 332.039062 C 434.960938 330.890625 432.246094 330.367188 429.53125 330.890625 C 425.773438 331.621094 422.429688 333.503906 419.402344 336.007812 C 417 337.992188 414.808594 340.1875 412.199219 342.066406 C 410.214844 343.527344 408.125 344.574219 405.722656 344.992188 C 400.296875 346.035156 395.179688 347.8125 390.480469 350.839844 C 387.765625 352.617188 385.257812 354.703125 383.484375 357.417969 C 381.8125 360.03125 380.5625 362.957031 380.039062 366.089844 C 379.414062 369.847656 379.515625 373.710938 380.039062 377.472656 C 380.664062 382.171875 382.960938 386.246094 386.199219 389.589844 C 389.332031 392.824219 393.089844 395.332031 396.847656 397.839844 C 400.710938 400.347656 404.472656 402.957031 407.394531 406.507812 C 409.171875 408.703125 411.152344 410.6875 413.449219 412.355469 C 419.296875 416.429688 425.773438 417.996094 432.976562 418.207031 Z M 432.976562 418.207031 " fill-opacity="1" fill-rule="nonzero"/><path fill="#dcd4c7" d="M 480.277344 505.832031 C 479.546875 504.789062 479.859375 503.640625 479.960938 502.597656 C 480.066406 501.34375 480.171875 500.195312 479.960938 499.042969 C 479.859375 498.625 479.859375 498.3125 479.859375 497.894531 C 479.859375 493.613281 479.441406 489.226562 479.128906 484.945312 C 478.8125 480.871094 478.082031 477.007812 477.457031 473.039062 C 476.621094 468.339844 475.683594 463.636719 474.324219 459.148438 C 473.699219 457.164062 473.28125 455.074219 472.652344 453.089844 C 471.820312 450.375 470.671875 447.867188 469.835938 445.152344 C 469.207031 443.0625 468.269531 441.078125 467.539062 438.988281 C 466.285156 435.125 464.925781 431.367188 464.40625 427.398438 C 464.09375 425.203125 464.925781 423.21875 465.65625 421.234375 C 466.390625 419.355469 467.746094 417.996094 468.894531 416.535156 C 470.984375 413.820312 473.488281 411.417969 475.367188 408.597656 C 477.039062 406.195312 478.292969 403.582031 479.648438 400.972656 C 480.484375 399.300781 481.425781 397.734375 482.261719 396.0625 C 483.410156 393.871094 484.453125 391.675781 485.078125 389.273438 C 485.707031 387.082031 486.539062 384.992188 487.167969 382.800781 C 487.792969 380.292969 488.105469 377.683594 488.421875 375.175781 C 488.628906 373.816406 488.628906 372.460938 488.628906 371.101562 C 488.628906 366.296875 487.792969 361.703125 487.0625 357.003906 C 486.4375 352.929688 484.765625 349.167969 483.09375 345.511719 C 482.992188 345.199219 482.675781 344.992188 482.46875 344.675781 C 481.527344 343.632812 480.277344 342.796875 479.648438 341.441406 C 479.441406 341.023438 478.917969 340.8125 478.5 340.605469 C 477.875 340.292969 477.457031 339.875 477.351562 339.140625 C 478.710938 339.769531 479.648438 341.023438 480.796875 341.859375 C 480.796875 341.960938 480.796875 342.066406 480.796875 342.171875 C 482.46875 343.945312 484.140625 345.617188 485.808594 347.394531 C 488.105469 351.78125 490.507812 356.167969 491.96875 360.867188 C 492.492188 362.433594 493.015625 363.894531 493.328125 365.460938 C 493.433594 366.402344 493.640625 367.34375 493.953125 368.175781 C 494.683594 372.144531 495.101562 376.113281 494.894531 380.082031 C 494.789062 383.21875 494.164062 386.246094 493.433594 389.273438 C 491.761719 396.585938 487.792969 402.539062 482.992188 408.179688 C 480.796875 410.6875 478.605469 413.191406 476.308594 415.59375 C 474.535156 417.371094 473.699219 419.667969 473.28125 422.175781 C 472.96875 424.160156 473.488281 426.039062 473.699219 427.917969 C 474.117188 431.15625 475.160156 434.183594 476.097656 437.320312 C 477.664062 442.332031 479.230469 447.34375 480.695312 452.359375 C 481.945312 456.746094 483.410156 461.027344 484.242188 465.519531 C 484.976562 469.175781 485.496094 472.933594 486.125 476.589844 C 486.644531 479.617188 486.957031 482.542969 487.273438 485.570312 C 487.585938 488.496094 488.003906 491.421875 488.316406 494.449219 C 488.523438 496.640625 489.359375 498.730469 490.089844 500.820312 C 491.136719 503.953125 492.492188 506.878906 493.851562 509.90625 C 495 512.308594 496.042969 514.710938 497.085938 517.007812 C 497.296875 517.425781 497.714844 517.738281 497.714844 518.261719 C 497.714844 518.367188 497.714844 518.472656 497.816406 518.472656 C 497.921875 519.621094 498.757812 520.558594 499.070312 521.605469 C 499.488281 522.960938 499.800781 524.425781 500.53125 525.78125 C 500.53125 527.035156 501.261719 528.078125 501.472656 529.230469 C 501.679688 530.167969 501.890625 531.214844 502.097656 532.152344 C 502.097656 533.511719 502.621094 534.765625 502.933594 536.015625 C 503.144531 537.6875 503.246094 539.253906 503.558594 540.925781 C 503.769531 541.761719 503.769531 542.703125 503.769531 543.539062 C 504.1875 547.296875 504.082031 551.058594 503.976562 554.816406 C 503.875 558.054688 503.558594 561.1875 503.144531 564.320312 C 502.726562 567.351562 501.996094 570.378906 500.949219 573.199219 C 499.90625 576.019531 499.175781 578.839844 497.714844 581.449219 C 497.398438 581.554688 497.503906 581.867188 497.503906 581.972656 C 497.296875 582.078125 497.398438 582.179688 497.296875 582.390625 C 497.191406 582.496094 497.085938 582.597656 497.085938 582.808594 C 496.980469 582.914062 496.980469 583.121094 496.878906 583.226562 C 495.417969 585.105469 494.265625 587.195312 492.597656 588.867188 C 486.957031 592.9375 480.484375 595.445312 473.800781 597.222656 C 471.296875 597.847656 468.789062 598.371094 466.285156 598.890625 C 465.761719 598.996094 465.554688 598.890625 465.554688 598.265625 C 465.449219 596.699219 465.972656 595.339844 466.179688 593.773438 C 466.390625 592.417969 466.597656 590.953125 466.910156 589.597656 C 467.328125 587.613281 467.539062 585.523438 468.058594 583.539062 C 468.894531 579.882812 469.625 576.226562 470.460938 572.574219 C 471.402344 568.605469 472.445312 564.636719 473.382812 560.667969 C 474.011719 558.054688 474.742188 555.546875 475.367188 552.9375 C 475.996094 550.429688 476.515625 547.925781 477.039062 545.523438 C 477.5625 543.121094 478.082031 540.820312 478.5 538.417969 C 479.023438 535.496094 479.335938 532.464844 479.859375 529.4375 C 480.171875 527.347656 480.589844 525.363281 480.796875 523.277344 C 481.109375 520.664062 481.527344 518.054688 481.632812 515.335938 C 481.738281 513.144531 482.050781 510.949219 482.15625 508.652344 C 482.261719 507.296875 482.050781 506.042969 481.945312 504.683594 C 481.945312 504.164062 481.738281 503.847656 481.109375 503.847656 C 480.484375 503.847656 480.484375 504.265625 480.378906 504.789062 C 480.695312 504.996094 480.695312 505.414062 480.277344 505.832031 Z M 480.277344 505.832031 " fill-opacity="1" fill-rule="nonzero"/><path fill="#5c4337" d="M 492.910156 588.65625 C 494.683594 586.984375 495.730469 584.792969 497.191406 583.015625 C 497.921875 583.644531 498.546875 583.433594 499.28125 582.914062 C 500.742188 581.554688 501.578125 579.777344 502.515625 578.109375 C 504.917969 574.140625 505.859375 569.542969 506.902344 565.15625 C 507.214844 563.902344 507.320312 562.546875 507.421875 561.1875 C 507.527344 560.457031 507.839844 560.351562 508.363281 560.769531 C 508.78125 561.082031 509.199219 561.5 509.617188 561.816406 C 515.046875 566.304688 519.015625 571.738281 520.476562 578.734375 C 520.894531 580.929688 520.996094 583.121094 521.207031 585.316406 C 521.519531 588.761719 520.789062 592.101562 519.746094 595.339844 C 518.28125 599.625 515.984375 603.488281 512.851562 606.828125 C 509.40625 610.484375 505.542969 613.304688 501.160156 615.707031 C 497.503906 617.796875 493.640625 619.46875 489.671875 621.035156 C 486.855469 622.183594 483.828125 623.121094 480.796875 623.75 C 479.230469 624.0625 477.769531 624.691406 476.203125 624.898438 C 472.445312 625.523438 468.582031 626.257812 464.71875 626.570312 C 461.167969 626.882812 457.722656 627.195312 454.171875 627.40625 C 450.203125 627.613281 446.238281 627.613281 442.269531 627.507812 C 439.136719 627.40625 436.003906 627.195312 433.082031 626.464844 C 431.304688 626.046875 429.425781 625.523438 427.652344 624.898438 C 424.519531 623.855469 422.222656 621.765625 420.027344 619.46875 C 418.777344 618.109375 418.671875 614.976562 419.714844 613.097656 C 421.492188 609.964844 424.207031 608.082031 427.441406 606.621094 C 430.679688 605.160156 434.125 604.84375 437.570312 604.53125 C 441.328125 604.113281 444.984375 604.113281 448.742188 603.800781 C 452.1875 603.488281 455.632812 603.59375 459.078125 603.277344 C 462.734375 602.859375 466.285156 602.546875 469.835938 601.921875 C 476.621094 600.5625 483.304688 598.789062 489.570312 595.550781 C 493.851562 593.355469 497.503906 590.328125 500.53125 586.566406 C 501.054688 585.835938 501.261719 585 501.472656 584.164062 C 501.578125 583.851562 501.679688 583.433594 501.261719 583.226562 C 500.84375 583.015625 500.53125 583.328125 500.324219 583.539062 C 499.070312 584.582031 497.921875 585.730469 496.773438 586.882812 C 495.625 587.71875 494.476562 588.550781 492.910156 588.65625 Z M 492.910156 588.65625 " fill-opacity="1" fill-rule="nonzero"/><path fill="#f6f2e8" d="M 398.101562 598.371094 C 398.101562 599.519531 398.101562 599.519531 396.953125 599.101562 C 394.238281 598.058594 391.523438 597.117188 388.808594 595.863281 C 384.320312 593.773438 380.5625 590.851562 377.21875 587.195312 C 373.355469 583.015625 370.222656 578.316406 367.925781 573.09375 C 366.671875 570.171875 365.523438 567.140625 365.003906 563.902344 C 364.691406 562.234375 364.375 560.667969 364.167969 558.996094 C 363.957031 557.636719 364.167969 556.28125 364.167969 554.921875 C 364.0625 551.160156 364.480469 547.507812 365.003906 543.746094 C 365.628906 539.671875 366.359375 535.601562 367.40625 531.632812 C 368.136719 528.8125 369.179688 526.09375 370.222656 523.378906 C 372 518.679688 374.191406 514.085938 376.175781 509.382812 C 377.113281 507.085938 377.949219 504.789062 378.367188 502.386719 C 378.367188 502.179688 378.472656 501.96875 378.679688 501.96875 C 378.996094 501.96875 378.996094 502.179688 378.996094 502.386719 C 379.097656 502.59375 379.097656 502.804688 379.097656 503.011719 C 378.996094 504.578125 379.515625 506.042969 379.726562 507.609375 C 380.039062 509.800781 380.351562 512.101562 380.664062 514.292969 C 380.976562 516.488281 381.394531 518.679688 381.710938 520.875 C 382.125 523.484375 382.441406 525.992188 382.960938 528.601562 C 383.484375 531.316406 383.902344 534.136719 384.425781 536.851562 C 385.15625 540.507812 386.09375 544.058594 386.824219 547.609375 C 387.453125 550.429688 388.183594 553.25 388.808594 556.070312 C 389.851562 560.457031 391.003906 564.949219 392.046875 569.335938 C 392.882812 572.675781 393.71875 576.125 394.34375 579.464844 C 394.96875 582.496094 395.386719 585.628906 396.015625 588.65625 C 396.328125 590.328125 396.746094 592.101562 397.058594 593.773438 C 397.683594 595.445312 398.207031 596.90625 398.101562 598.371094 Z M 398.101562 598.371094 " fill-opacity="1" fill-rule="nonzero"/><path fill="#5c4337" d="M 413.972656 571.945312 C 416.792969 571.632812 419.507812 571.007812 422.011719 569.4375 C 422.429688 569.335938 422.640625 569.125 422.953125 568.917969 C 424.308594 567.976562 425.457031 566.722656 426.710938 565.679688 C 427.128906 566.621094 427.023438 567.664062 427.023438 568.605469 C 427.023438 572.257812 427.339844 575.914062 427.546875 579.570312 C 427.964844 586.046875 428.070312 592.417969 428.070312 598.890625 C 428.070312 599.726562 428.171875 600.5625 428.277344 601.398438 C 428.277344 602.234375 427.964844 602.652344 427.234375 602.859375 C 423.265625 604.113281 419.925781 606.414062 417.628906 609.859375 C 415.433594 612.992188 414.496094 616.542969 416.269531 620.304688 C 416.375 620.511719 416.480469 620.722656 416.480469 620.929688 C 417 622.601562 416.898438 622.808594 415.226562 622.914062 C 412.617188 623.125 409.902344 623.332031 407.289062 623.019531 C 406.246094 622.914062 405.828125 622.390625 405.722656 621.554688 C 405.308594 619.570312 405.621094 617.796875 406.246094 615.917969 C 406.457031 615.394531 406.871094 614.769531 406.246094 614.351562 C 405.621094 613.933594 405.203125 614.558594 404.785156 614.976562 C 403.742188 616.019531 403.007812 617.273438 403.113281 618.839844 C 403.21875 619.886719 403.113281 620.824219 403.113281 621.871094 C 403.113281 622.289062 403.007812 622.707031 402.488281 622.496094 C 400.191406 621.871094 398.414062 620.722656 397.683594 618.320312 C 397.164062 616.335938 397.265625 614.453125 398.101562 612.46875 C 398.832031 610.796875 399.667969 609.230469 400.710938 607.769531 C 402.175781 605.472656 402.070312 603.070312 401.859375 600.667969 C 401.546875 597.847656 401.234375 594.921875 400.710938 592.101562 C 400.191406 589.386719 399.980469 586.671875 399.144531 583.957031 C 398.730469 582.808594 398.625 581.554688 398.414062 580.40625 C 398.101562 578.628906 397.683594 576.855469 397.265625 575.078125 C 396.746094 572.886719 396.222656 570.691406 395.699219 568.394531 C 395.597656 567.871094 395.492188 567.351562 395.597656 566.828125 C 396.640625 567.453125 397.789062 567.976562 398.832031 568.605469 C 400.921875 569.855469 403.21875 570.796875 405.515625 571.421875 C 408.125 572.050781 410.632812 572.363281 413.347656 572.050781 C 413.554688 572.050781 413.765625 572.050781 413.972656 571.945312 Z M 413.972656 571.945312 " fill-opacity="1" fill-rule="nonzero"/><path fill="#5c4337" d="M 439.867188 566.410156 C 441.433594 567.558594 443 568.707031 444.773438 569.542969 C 448.011719 571.109375 451.457031 571.421875 455.007812 571.109375 C 458.246094 570.796875 461.273438 569.753906 464.300781 568.394531 C 465.761719 567.769531 467.121094 566.828125 468.371094 565.886719 C 468.476562 566.828125 468.164062 567.664062 467.957031 568.605469 C 466.910156 573.304688 465.867188 577.898438 465.03125 582.597656 C 464.613281 584.792969 464.195312 587.089844 463.675781 589.285156 C 463.257812 591.164062 463.046875 593.042969 462.734375 594.921875 C 462.527344 595.96875 462.316406 597.117188 462.316406 598.160156 C 462.316406 598.578125 462.109375 598.996094 461.691406 598.996094 C 460.644531 598.996094 459.707031 599.308594 458.664062 599.414062 C 453.652344 599.726562 448.636719 600.042969 443.625 600.25 C 442.375 600.355469 441.226562 600.5625 439.972656 600.5625 C 438.71875 600.667969 438.613281 600.457031 438.71875 599.207031 C 438.824219 597.011719 439.03125 594.714844 439.136719 592.519531 C 439.347656 589.074219 439.347656 585.734375 439.554688 582.285156 C 439.867188 577.585938 439.660156 572.886719 439.761719 568.1875 C 439.660156 567.558594 439.449219 566.933594 439.867188 566.410156 Z M 439.867188 566.410156 " fill-opacity="1" fill-rule="nonzero"/><path fill="#5c4337" d="M 485.914062 347.078125 C 484.242188 345.410156 482.574219 343.632812 480.902344 341.859375 C 480.902344 341.753906 480.902344 341.648438 480.902344 341.542969 C 480.902344 341.335938 480.902344 341.023438 480.796875 340.917969 C 479.335938 339.039062 477.980469 337.054688 475.996094 335.695312 C 472.652344 333.1875 469.105469 330.890625 465.34375 329.117188 C 464.09375 328.488281 463.988281 328.070312 464.71875 326.921875 C 466.285156 324.414062 468.058594 322.011719 469.835938 319.613281 C 471.191406 317.625 472.652344 315.640625 474.117188 313.65625 C 475.054688 312.40625 476.203125 311.359375 477.144531 310.003906 C 477.351562 309.6875 477.980469 309.273438 477.457031 308.855469 C 477.039062 308.539062 476.515625 308.75 476.097656 309.0625 C 475.890625 309.167969 475.785156 309.375 475.578125 309.480469 C 474.636719 310.421875 473.699219 311.257812 472.863281 312.300781 C 470.460938 315.433594 467.957031 318.460938 465.554688 321.597656 C 463.882812 323.789062 462.316406 326.191406 461.792969 329.011719 C 460.644531 328.699219 459.707031 327.96875 458.664062 327.550781 C 458.035156 327.339844 457.515625 326.816406 456.78125 326.921875 C 456.679688 326.816406 456.679688 326.503906 456.363281 326.609375 C 456.15625 326.609375 455.949219 326.503906 455.84375 326.503906 C 455.320312 326.191406 454.902344 325.773438 454.277344 325.773438 C 453.023438 325.355469 451.875 324.832031 450.9375 324 C 452.710938 323.789062 454.171875 323.164062 455.425781 321.804688 C 458.558594 318.566406 461.480469 315.226562 464.507812 311.882812 C 467.539062 308.4375 470.773438 305.199219 474.429688 302.378906 C 475.683594 301.332031 477.144531 300.5 478.605469 299.664062 C 479.960938 298.828125 481.527344 299.347656 482.46875 300.8125 C 483.617188 302.691406 484.347656 304.675781 484.765625 306.765625 C 485.496094 310.316406 486.125 313.867188 486.226562 317.523438 C 486.539062 323.476562 486.644531 329.324219 486.4375 335.277344 C 486.332031 337.890625 486.539062 340.5 486.125 343.109375 C 486.019531 344.46875 486.644531 345.828125 485.914062 347.078125 Z M 485.914062 347.078125 " fill-opacity="1" fill-rule="nonzero"/><path fill="#5c4337" d="M 409.273438 325.042969 C 408.023438 326.085938 406.558594 326.816406 405.097656 327.234375 C 403.425781 327.757812 401.964844 328.59375 400.398438 329.324219 C 400.191406 329.429688 400.085938 329.535156 399.878906 329.429688 C 399.878906 329.324219 399.773438 329.011719 399.773438 329.011719 C 398.832031 329.011719 398.832031 328.175781 398.625 327.550781 C 398.3125 326.816406 397.996094 326.191406 397.582031 325.5625 C 395.699219 323.058594 393.925781 320.550781 392.046875 318.148438 C 390.269531 315.851562 388.601562 313.449219 386.199219 311.671875 C 385.675781 311.253906 384.945312 310.523438 384.320312 311.046875 C 383.796875 311.671875 384.527344 312.40625 384.945312 312.925781 C 387.242188 315.640625 389.75 318.148438 391.734375 321.074219 C 393.300781 323.371094 394.867188 325.773438 396.535156 328.070312 C 397.058594 328.800781 396.953125 329.324219 396.117188 329.847656 C 395.386719 330.265625 394.761719 330.785156 394.03125 331.203125 C 390.0625 333.605469 386.09375 336.113281 382.859375 339.558594 C 381.605469 340.8125 380.5625 342.273438 379.410156 343.632812 C 379.308594 343.84375 378.785156 344.15625 379.410156 344.363281 C 378.472656 346.035156 377.21875 347.496094 375.964844 348.855469 C 375.546875 348.230469 375.546875 347.496094 375.546875 346.660156 C 375.445312 343.214844 375.234375 339.664062 375.027344 336.21875 C 374.816406 331.832031 374.816406 327.339844 375.132812 322.953125 C 375.339844 319.925781 375.652344 316.894531 376.070312 313.867188 C 376.59375 310.105469 377.324219 306.347656 379.097656 302.898438 C 379.933594 301.332031 380.875 301.019531 382.441406 301.855469 C 384.839844 303.316406 386.929688 304.988281 389.226562 306.660156 C 392.359375 308.851562 394.867188 311.570312 397.582031 314.179688 C 399.667969 316.164062 401.652344 318.359375 403.636719 320.34375 C 405.308594 322.117188 407.082031 323.894531 409.273438 325.042969 Z M 409.273438 325.042969 " fill-opacity="1" fill-rule="nonzero"/><path fill="#dcd4c7" d="M 428.277344 530.480469 C 429.320312 530.691406 430.367188 530.898438 431.410156 531.527344 C 432.246094 532.046875 433.082031 531.421875 433.601562 530.378906 C 434.4375 528.394531 435.378906 526.410156 436.214844 524.320312 C 436.527344 523.589844 437.046875 523.277344 437.78125 523.484375 C 438.40625 523.691406 438.40625 524.320312 438.511719 524.84375 C 438.511719 525.261719 438.511719 525.574219 438.511719 525.992188 C 437.78125 526.511719 437.570312 527.246094 437.570312 528.078125 C 437.363281 530.480469 437.464844 532.988281 437.464844 535.390625 C 437.464844 541.554688 437.257812 547.609375 437.152344 553.773438 C 436.945312 563.902344 436.734375 574.035156 436.316406 584.164062 C 436.109375 589.597656 435.585938 595.027344 435.585938 600.457031 C 435.585938 600.980469 435.484375 601.085938 434.960938 601.191406 C 433.917969 601.292969 432.769531 601.503906 431.722656 601.710938 C 430.886719 601.921875 430.992188 601.292969 430.992188 600.875 C 431.097656 597.011719 430.992188 593.148438 430.785156 589.285156 C 430.785156 589.179688 430.785156 589.179688 430.785156 589.074219 C 430.574219 588.03125 430.679688 586.882812 430.679688 585.835938 C 430.574219 581.449219 430.46875 577.167969 430.261719 572.78125 C 430.054688 569.542969 429.949219 566.203125 429.738281 562.964844 C 429.53125 560.039062 429.53125 557.113281 429.320312 554.191406 C 429.113281 548.65625 428.90625 543.121094 428.695312 537.585938 C 428.488281 535.183594 428.589844 532.78125 428.277344 530.480469 Z M 428.277344 530.480469 " fill-opacity="1" fill-rule="nonzero"/><path fill="#5c4337" d="M 388.914062 609.753906 C 388.808594 608.5 389.226562 607.144531 389.121094 605.785156 C 389.121094 605.578125 389.226562 605.261719 388.914062 605.054688 C 388.601562 604.949219 388.390625 605.160156 388.289062 605.367188 C 386.511719 607.246094 385.675781 609.230469 386.304688 611.84375 C 386.40625 612.367188 386.40625 612.992188 386.617188 613.515625 C 386.824219 613.933594 386.40625 614.246094 385.988281 614.140625 C 384.839844 614.035156 383.691406 614.035156 382.648438 613.722656 C 381.8125 613.410156 381.5 612.886719 381.292969 611.949219 C 380.976562 609.441406 381.292969 607.039062 382.023438 604.636719 C 382.125 604.21875 382.335938 603.800781 381.917969 603.59375 C 381.5 603.382812 380.976562 603.382812 380.5625 603.800781 C 379.308594 605.054688 378.578125 606.515625 378.367188 608.292969 C 378.261719 609.546875 378.472656 610.902344 378.578125 612.15625 C 378.679688 612.78125 378.472656 612.78125 378.054688 612.679688 C 376.90625 612.367188 376.28125 611.320312 375.445312 610.484375 C 373.042969 607.769531 373.667969 604.84375 375.132812 602.128906 C 376.699219 599.207031 379.308594 597.535156 382.125 596.175781 C 382.648438 595.96875 383.066406 596.070312 383.378906 596.28125 C 386.40625 598.160156 389.75 599.414062 393.089844 600.667969 C 394.34375 601.191406 395.699219 601.609375 397.164062 601.710938 C 397.894531 601.816406 398.519531 601.921875 398.730469 602.757812 C 399.042969 603.695312 398.730469 604.53125 398.207031 605.160156 C 397.058594 606.515625 396.117188 608.082031 395.28125 609.648438 C 394.761719 610.589844 394.550781 611.53125 394.449219 612.46875 C 394.34375 613.410156 393.714844 613.933594 392.777344 613.933594 C 392.046875 614.035156 391.316406 614.140625 390.585938 614.246094 C 389.75 614.351562 389.332031 614.035156 389.121094 613.199219 C 389.019531 612.574219 388.914062 612.050781 388.914062 611.425781 C 388.808594 611.007812 388.914062 610.484375 388.914062 609.753906 Z M 388.914062 609.753906 " fill-opacity="1" fill-rule="nonzero"/><path fill="#dcd4c7" d="M 426.710938 565.679688 C 425.457031 566.722656 424.308594 567.976562 422.953125 568.917969 C 422.640625 569.125 422.429688 569.335938 422.011719 569.4375 C 421.910156 568.917969 421.804688 568.394531 421.804688 567.871094 C 421.910156 564.113281 421.59375 560.25 421.386719 556.488281 C 421.28125 553.667969 421.179688 550.953125 420.96875 548.132812 C 420.761719 545.207031 420.761719 542.179688 420.863281 539.253906 C 420.96875 535.601562 421.074219 531.839844 421.492188 528.183594 C 421.699219 526.09375 422.222656 524.109375 422.222656 522.023438 C 422.222656 521.917969 422.222656 521.8125 422.222656 521.707031 C 422.429688 521.289062 422.222656 520.558594 422.953125 520.457031 C 423.578125 520.351562 423.683594 520.976562 423.890625 521.394531 C 424.625 522.960938 425.667969 524.320312 426.605469 525.675781 C 426.816406 525.886719 427.023438 526.09375 427.339844 526.09375 C 426.191406 528.078125 426.191406 530.273438 426.191406 532.464844 C 426.191406 539.253906 426.398438 546.042969 426.398438 552.832031 C 426.398438 554.398438 426.503906 555.863281 426.503906 557.429688 C 426.605469 559.621094 426.710938 561.816406 426.921875 564.007812 C 426.921875 564.636719 426.921875 565.15625 426.710938 565.679688 Z M 426.710938 565.679688 " fill-opacity="1" fill-rule="nonzero"/><path fill="#5c4337" d="M 500.636719 525.363281 C 499.90625 524.109375 499.59375 522.648438 499.175781 521.1875 C 498.863281 520.140625 498.027344 519.203125 497.921875 518.054688 C 498.234375 518.054688 498.339844 518.261719 498.445312 518.472656 C 499.382812 520.558594 500.011719 522.753906 500.742188 524.945312 C 500.742188 525.15625 500.636719 525.261719 500.636719 525.363281 Z M 500.636719 525.363281 " fill-opacity="1" fill-rule="nonzero"/><path fill="#5c4337" d="M 503.039062 535.703125 C 502.828125 534.347656 502.308594 533.09375 502.203125 531.839844 C 502.933594 532.257812 502.621094 532.988281 502.828125 533.511719 C 503.144531 534.242188 503.351562 534.972656 503.039062 535.703125 Z M 503.039062 535.703125 " fill-opacity="1" fill-rule="nonzero"/><path fill="#5c4337" d="M 494.058594 367.96875 C 493.746094 367.027344 493.535156 366.191406 493.433594 365.253906 C 493.953125 365.984375 494.265625 366.925781 494.058594 367.96875 Z M 494.058594 367.96875 " fill-opacity="1" fill-rule="nonzero"/><path fill="#5c4337" d="M 497.296875 582.496094 C 497.296875 582.285156 497.296875 582.179688 497.503906 582.078125 C 497.816406 582.390625 497.609375 582.496094 497.296875 582.496094 Z M 497.296875 582.496094 " fill-opacity="1" fill-rule="nonzero"/><path fill="#5c4337" d="M 497.714844 581.761719 C 497.714844 581.554688 497.609375 581.242188 497.921875 581.242188 C 497.921875 581.347656 498.027344 581.660156 497.714844 581.761719 Z M 497.714844 581.761719 " fill-opacity="1" fill-rule="nonzero"/><path fill="#5c4337" d="M 497.921875 518.15625 C 497.816406 518.15625 497.714844 518.054688 497.816406 517.949219 C 497.816406 517.949219 497.816406 518.054688 497.921875 518.15625 Z M 497.921875 518.15625 " fill-opacity="1" fill-rule="nonzero"/><path fill="#5c4337" d="M 430.785156 588.96875 C 430.785156 589.074219 430.785156 589.074219 430.785156 589.179688 C 430.785156 589.179688 430.679688 589.074219 430.785156 588.96875 C 430.679688 589.074219 430.785156 588.96875 430.785156 588.96875 Z M 430.785156 588.96875 " fill-opacity="1" fill-rule="nonzero"/><path fill="#5c4337" d="M 450.9375 324.101562 C 450.832031 324.101562 450.726562 324.101562 450.726562 324.101562 C 450.832031 323.894531 450.9375 323.894531 450.9375 324.101562 Z M 450.9375 324.101562 " fill-opacity="1" fill-rule="nonzero"/><path fill="#5c4337" d="M 432.976562 418.207031 C 425.773438 417.996094 419.296875 416.429688 413.554688 412.148438 C 411.257812 410.476562 409.273438 408.492188 407.5 406.300781 C 404.574219 402.746094 400.816406 400.136719 396.953125 397.628906 C 393.195312 395.226562 389.4375 392.722656 386.304688 389.378906 C 383.066406 385.933594 380.769531 381.859375 380.144531 377.265625 C 379.621094 373.503906 379.515625 369.640625 380.144531 365.878906 C 380.664062 362.746094 381.917969 359.820312 383.589844 357.210938 C 385.363281 354.496094 387.765625 352.40625 390.585938 350.632812 C 395.28125 347.601562 400.398438 345.929688 405.828125 344.78125 C 408.230469 344.261719 410.320312 343.214844 412.300781 341.859375 C 414.808594 340.082031 417.105469 337.890625 419.507812 335.800781 C 422.429688 333.292969 425.773438 331.414062 429.636719 330.683594 C 432.351562 330.160156 435.066406 330.683594 437.675781 331.832031 C 441.851562 333.605469 444.773438 336.738281 448.222656 339.457031 C 450.9375 341.648438 453.964844 343.214844 457.410156 343.945312 C 463.570312 345.304688 469.417969 347.496094 474.636719 351.152344 C 477.246094 353.03125 479.023438 355.539062 480.484375 358.253906 C 482.050781 361.386719 482.886719 364.730469 483.511719 368.074219 C 484.140625 371.101562 484.035156 374.128906 483.199219 377.160156 C 482.46875 379.667969 481.527344 382.070312 480.378906 384.367188 C 477.875 389.066406 474.011719 392.410156 469.519531 395.125 C 465.761719 397.421875 462.109375 399.71875 458.871094 402.75 C 457.617188 403.898438 456.574219 405.253906 455.53125 406.507812 C 450.519531 412.355469 444.359375 416.324219 436.734375 417.683594 C 435.378906 418.101562 434.019531 418.101562 432.976562 418.207031 Z M 432.351562 379.25 C 432.351562 379.25 432.351562 379.351562 432.351562 379.25 C 431.097656 379.25 429.949219 379.25 428.695312 379.25 C 427.128906 379.351562 425.667969 379.457031 424.308594 380.398438 C 423.058594 381.335938 422.742188 382.382812 423.578125 383.738281 C 424.726562 385.621094 426.292969 387.082031 428.171875 388.125 C 428.90625 388.542969 429.738281 388.855469 429.84375 389.691406 C 430.054688 391.675781 430.054688 393.660156 428.800781 395.332031 C 426.710938 398.257812 421.28125 399.195312 418.359375 397.210938 C 417.3125 396.480469 416.375 395.75 415.539062 394.808594 C 415.226562 394.496094 414.808594 394.289062 414.390625 394.601562 C 413.972656 394.808594 414.078125 395.332031 414.183594 395.644531 C 414.285156 396.0625 414.496094 396.378906 414.703125 396.691406 C 418.359375 402.332031 426.292969 402.121094 430.261719 398.152344 C 431.410156 397.003906 431.410156 397.003906 432.664062 398.046875 C 432.769531 398.152344 432.871094 398.152344 432.976562 398.257812 C 435.585938 400.136719 438.511719 401.078125 441.746094 400.765625 C 444.566406 400.449219 446.863281 399.40625 448.324219 396.898438 C 448.742188 396.273438 449.371094 395.332031 448.535156 394.707031 C 447.699219 394.078125 447.074219 394.914062 446.445312 395.4375 C 445.507812 396.480469 444.359375 397.421875 442.894531 397.527344 C 440.910156 397.734375 438.824219 397.734375 436.945312 396.898438 C 435.167969 396.0625 433.082031 395.332031 433.082031 392.824219 C 433.082031 391.574219 432.769531 390.320312 433.183594 389.171875 C 433.5 388.335938 434.75 388.230469 435.484375 387.605469 C 435.585938 387.5 435.691406 387.5 435.691406 387.5 C 437.046875 386.558594 438.613281 385.722656 439.449219 384.15625 C 440.179688 382.902344 440.078125 381.441406 439.136719 380.605469 C 438.195312 379.875 437.152344 379.351562 436.003906 379.25 C 434.855469 379.25 433.601562 379.25 432.351562 379.25 Z M 432.351562 379.25 " fill-opacity="1" fill-rule="nonzero"/><path fill="#0e0c0b" d="M 461.898438 329.011719 C 462.421875 326.191406 463.988281 323.894531 465.65625 321.597656 C 468.058594 318.460938 470.566406 315.433594 472.96875 312.300781 C 473.800781 311.257812 474.742188 310.421875 475.683594 309.480469 C 475.890625 309.269531 475.996094 309.167969 476.203125 309.0625 C 476.621094 308.75 477.144531 308.539062 477.5625 308.855469 C 478.082031 309.269531 477.457031 309.6875 477.25 310.003906 C 476.414062 311.359375 475.160156 312.40625 474.21875 313.65625 C 472.757812 315.539062 471.296875 317.523438 469.9375 319.609375 C 468.269531 322.011719 466.390625 324.414062 464.824219 326.921875 C 464.09375 328.070312 464.195312 328.488281 465.449219 329.117188 C 469.3125 330.890625 472.757812 333.1875 476.097656 335.695312 C 477.980469 337.15625 479.441406 339.039062 480.902344 340.917969 C 481.007812 341.125 481.007812 341.335938 481.007812 341.542969 C 479.753906 340.707031 478.917969 339.457031 477.5625 338.828125 C 474.011719 336.320312 470.671875 333.605469 466.808594 331.519531 C 465.03125 330.785156 463.464844 329.949219 461.898438 329.011719 Z M 461.898438 329.011719 " fill-opacity="1" fill-rule="nonzero"/><path fill="#0e0c0b" d="M 379.515625 344.46875 C 378.890625 344.261719 379.410156 343.945312 379.515625 343.738281 C 380.664062 342.378906 381.710938 340.917969 382.960938 339.664062 C 386.199219 336.21875 390.167969 333.710938 394.132812 331.308594 C 394.867188 330.890625 395.492188 330.367188 396.222656 329.949219 C 397.058594 329.535156 397.164062 328.90625 396.640625 328.175781 C 395.074219 325.878906 393.507812 323.476562 391.835938 321.179688 C 389.851562 318.253906 387.347656 315.640625 385.050781 313.03125 C 384.632812 312.507812 383.902344 311.777344 384.425781 311.152344 C 384.945312 310.523438 385.675781 311.359375 386.304688 311.777344 C 388.703125 313.554688 390.375 315.957031 392.152344 318.253906 C 394.03125 320.65625 395.804688 323.164062 397.683594 325.667969 C 398.101562 326.296875 398.414062 326.921875 398.730469 327.652344 C 398.9375 328.28125 398.9375 329.011719 399.878906 329.117188 C 399.878906 329.117188 399.980469 329.429688 399.980469 329.535156 C 393.925781 333.085938 388.183594 337.054688 382.753906 341.335938 C 381.394531 342.277344 380.457031 343.320312 379.515625 344.46875 Z M 379.515625 344.46875 " fill-opacity="1" fill-rule="nonzero"/><path fill="#dcd4c7" d="M 454.277344 325.878906 C 454.902344 325.878906 455.425781 326.296875 455.84375 326.609375 C 455.007812 326.921875 454.695312 326.398438 454.277344 325.878906 Z M 454.277344 325.878906 " fill-opacity="1" fill-rule="nonzero"/><path fill="#dcd4c7" d="M 413.972656 571.945312 C 413.765625 572.050781 413.554688 572.050781 413.347656 571.945312 C 413.554688 571.738281 413.765625 571.738281 413.972656 571.945312 Z M 413.972656 571.945312 " fill-opacity="1" fill-rule="nonzero"/><path fill="#dcd4c7" d="M 456.46875 326.714844 C 456.78125 326.609375 456.679688 326.921875 456.886719 327.027344 C 456.574219 327.027344 456.46875 326.921875 456.46875 326.714844 Z M 456.46875 326.714844 " fill-opacity="1" fill-rule="nonzero"/><path fill="#0e0c0b" d="M 432.351562 379.25 C 433.601562 379.25 434.855469 379.25 436.109375 379.25 C 437.363281 379.25 438.40625 379.769531 439.242188 380.605469 C 440.179688 381.441406 440.285156 382.902344 439.554688 384.15625 C 438.71875 385.722656 437.152344 386.558594 435.796875 387.5 C 435.691406 387.605469 435.585938 387.605469 435.585938 387.605469 C 434.855469 388.125 433.601562 388.335938 433.289062 389.171875 C 432.871094 390.320312 433.183594 391.574219 433.183594 392.824219 C 433.289062 395.332031 435.273438 396.0625 437.046875 396.898438 C 438.929688 397.734375 441.015625 397.734375 443 397.527344 C 444.460938 397.316406 445.507812 396.378906 446.550781 395.4375 C 447.074219 394.808594 447.804688 393.976562 448.636719 394.707031 C 449.472656 395.332031 448.742188 396.273438 448.429688 396.898438 C 446.96875 399.40625 444.671875 400.554688 441.851562 400.761719 C 438.613281 401.078125 435.691406 400.136719 433.082031 398.257812 C 432.976562 398.152344 432.871094 398.152344 432.769531 398.046875 C 431.515625 397.003906 431.410156 397.003906 430.367188 398.152344 C 426.398438 402.226562 418.464844 402.332031 414.808594 396.691406 C 414.601562 396.375 414.390625 396.0625 414.285156 395.644531 C 414.183594 395.332031 414.078125 394.808594 414.496094 394.601562 C 414.914062 394.390625 415.332031 394.496094 415.644531 394.808594 C 416.480469 395.75 417.417969 396.480469 418.464844 397.210938 C 421.386719 399.195312 426.816406 398.257812 428.90625 395.332031 C 430.15625 393.660156 430.15625 391.675781 429.949219 389.691406 C 429.84375 388.855469 429.007812 388.542969 428.277344 388.125 C 426.292969 387.082031 424.726562 385.621094 423.683594 383.738281 C 422.847656 382.382812 423.058594 381.335938 424.414062 380.398438 C 425.773438 379.457031 427.234375 379.25 428.800781 379.25 C 429.949219 379.25 431.097656 379.351562 432.351562 379.25 C 432.351562 379.351562 432.351562 379.25 432.351562 379.25 Z M 432.976562 381.859375 C 432.769531 381.859375 432.453125 381.859375 432.246094 381.859375 C 430.679688 381.753906 429.113281 381.964844 427.441406 382.066406 C 427.023438 382.066406 426.398438 382.066406 426.292969 382.589844 C 426.085938 383.007812 426.503906 383.320312 426.816406 383.636719 C 427.859375 384.785156 429.113281 385.722656 430.46875 386.558594 C 430.992188 386.871094 431.515625 386.976562 432.035156 386.769531 C 433.917969 386.039062 435.585938 384.886719 437.046875 383.425781 C 437.363281 383.21875 437.464844 382.800781 437.257812 382.382812 C 437.046875 381.964844 436.632812 381.964844 436.214844 381.964844 C 435.066406 381.859375 434.019531 381.859375 432.976562 381.859375 Z M 432.976562 381.859375 " fill-opacity="1" fill-rule="nonzero"/><path fill="#5c4337" d="M 432.976562 381.859375 C 434.019531 381.859375 435.167969 381.859375 436.214844 381.859375 C 436.632812 381.859375 437.046875 381.964844 437.257812 382.277344 C 437.464844 382.695312 437.257812 383.113281 437.046875 383.320312 C 435.585938 384.679688 434.019531 385.933594 432.035156 386.664062 C 431.515625 386.871094 430.886719 386.664062 430.46875 386.453125 C 429.113281 385.722656 427.859375 384.679688 426.816406 383.53125 C 426.605469 383.21875 426.191406 382.902344 426.292969 382.484375 C 426.503906 382.066406 427.023438 382.066406 427.441406 381.964844 C 429.007812 381.859375 430.574219 381.652344 432.246094 381.753906 C 432.453125 381.859375 432.664062 381.859375 432.976562 381.859375 Z M 432.976562 381.859375 " fill-opacity="1" fill-rule="nonzero"/><path fill="#0068ff" d="M 408.542969 367.339844 C 408.542969 367.617188 408.515625 367.886719 408.464844 368.15625 C 408.410156 368.425781 408.332031 368.6875 408.226562 368.941406 C 408.121094 369.195312 407.992188 369.433594 407.839844 369.664062 C 407.6875 369.890625 407.515625 370.101562 407.320312 370.296875 C 407.125 370.488281 406.914062 370.664062 406.6875 370.816406 C 406.460938 370.96875 406.21875 371.097656 405.964844 371.203125 C 405.710938 371.304688 405.449219 371.386719 405.183594 371.4375 C 404.914062 371.492188 404.640625 371.519531 404.367188 371.519531 C 404.09375 371.519531 403.820312 371.492188 403.550781 371.4375 C 403.285156 371.386719 403.023438 371.304688 402.769531 371.203125 C 402.515625 371.097656 402.273438 370.96875 402.046875 370.816406 C 401.820312 370.664062 401.609375 370.488281 401.414062 370.296875 C 401.21875 370.101562 401.046875 369.890625 400.894531 369.664062 C 400.742188 369.433594 400.613281 369.195312 400.507812 368.941406 C 400.402344 368.6875 400.324219 368.425781 400.269531 368.15625 C 400.21875 367.886719 400.191406 367.617188 400.191406 367.339844 C 400.191406 367.066406 400.21875 366.796875 400.269531 366.527344 C 400.324219 366.257812 400.402344 365.996094 400.507812 365.742188 C 400.613281 365.488281 400.742188 365.25 400.894531 365.019531 C 401.046875 364.792969 401.21875 364.582031 401.414062 364.386719 C 401.609375 364.195312 401.820312 364.019531 402.046875 363.867188 C 402.273438 363.714844 402.515625 363.585938 402.769531 363.480469 C 403.023438 363.378906 403.285156 363.296875 403.550781 363.246094 C 403.820312 363.191406 404.09375 363.164062 404.367188 363.164062 C 404.640625 363.164062 404.914062 363.191406 405.183594 363.246094 C 405.449219 363.296875 405.710938 363.378906 405.964844 363.480469 C 406.21875 363.585938 406.460938 363.714844 406.6875 363.867188 C 406.914062 364.019531 407.125 364.195312 407.320312 364.386719 C 407.515625 364.582031 407.6875 364.792969 407.839844 365.019531 C 407.992188 365.25 408.121094 365.488281 408.226562 365.742188 C 408.332031 365.996094 408.410156 366.257812 408.464844 366.527344 C 408.515625 366.796875 408.542969 367.066406 408.542969 367.339844 Z M 408.542969 367.339844 " fill-opacity="1" fill-rule="nonzero"/><path fill="#0068ff" d="M 462.839844 367.339844 C 462.839844 367.617188 462.8125 367.886719 462.757812 368.15625 C 462.707031 368.425781 462.625 368.6875 462.519531 368.941406 C 462.414062 369.195312 462.289062 369.433594 462.136719 369.664062 C 461.984375 369.890625 461.808594 370.101562 461.617188 370.296875 C 461.421875 370.488281 461.210938 370.664062 460.984375 370.816406 C 460.753906 370.96875 460.515625 371.097656 460.261719 371.203125 C 460.007812 371.304688 459.746094 371.386719 459.476562 371.4375 C 459.207031 371.492188 458.9375 371.519531 458.664062 371.519531 C 458.386719 371.519531 458.117188 371.492188 457.847656 371.4375 C 457.578125 371.386719 457.316406 371.304688 457.0625 371.203125 C 456.8125 371.097656 456.570312 370.96875 456.34375 370.816406 C 456.113281 370.664062 455.902344 370.488281 455.710938 370.296875 C 455.515625 370.101562 455.34375 369.890625 455.191406 369.664062 C 455.039062 369.433594 454.910156 369.195312 454.804688 368.941406 C 454.699219 368.6875 454.621094 368.425781 454.566406 368.15625 C 454.511719 367.886719 454.484375 367.617188 454.484375 367.339844 C 454.484375 367.066406 454.511719 366.796875 454.566406 366.527344 C 454.621094 366.257812 454.699219 365.996094 454.804688 365.742188 C 454.910156 365.488281 455.039062 365.25 455.191406 365.019531 C 455.34375 364.792969 455.515625 364.582031 455.710938 364.386719 C 455.902344 364.195312 456.113281 364.019531 456.34375 363.867188 C 456.570312 363.714844 456.8125 363.585938 457.0625 363.480469 C 457.316406 363.378906 457.578125 363.296875 457.847656 363.246094 C 458.117188 363.191406 458.386719 363.164062 458.664062 363.164062 C 458.9375 363.164062 459.207031 363.191406 459.476562 363.246094 C 459.746094 363.296875 460.007812 363.378906 460.261719 363.480469 C 460.515625 363.585938 460.753906 363.714844 460.984375 363.867188 C 461.210938 364.019531 461.421875 364.195312 461.617188 364.386719 C 461.808594 364.582031 461.984375 364.792969 462.136719 365.019531 C 462.289062 365.25 462.414062 365.488281 462.519531 365.742188 C 462.625 365.996094 462.707031 366.257812 462.757812 366.527344 C 462.8125 366.796875 462.839844 367.066406 462.839844 367.339844 Z M 462.839844 367.339844 " fill-opacity="1" fill-rule="nonzero"/></svg>